<svg xmlns="http://www.w3.org/2000/svg" xmlns:xlink="http://www.w3.org/1999/xlink" viewBox="0 0 82.71 55.04"><defs><style>.cls-1{fill:url(#linear-gradient);}.cls-2{fill:url(#linear-gradient-2);}.cls-3{fill:url(#linear-gradient-3);}.cls-4{fill:#007f41;}</style><linearGradient id="linear-gradient" x1="129.32" y1="376.46" x2="129.55" y2="376.46" gradientTransform="matrix(-55.21, -0.53, -0.53, 55.21, 7376.56, -20692.63)" gradientUnits="userSpaceOnUse"><stop offset="0.1" stop-color="#ee7800"/><stop offset="0.25" stop-color="#ec7202"/><stop offset="0.46" stop-color="#e56207"/><stop offset="0.69" stop-color="#db470f"/><stop offset="0.93" stop-color="#cc211a"/><stop offset="1" stop-color="#c8161d"/></linearGradient><linearGradient id="linear-gradient-2" x1="104.87" y1="378.01" x2="105.1" y2="378.01" gradientTransform="matrix(49.41, 0.47, 0.47, -49.41, -5320.19, 18637.85)" gradientUnits="userSpaceOnUse"><stop offset="0" stop-color="#20aee5"/><stop offset="1" stop-color="#0054a7"/></linearGradient><linearGradient id="linear-gradient-3" x1="108.98" y1="378.54" x2="109.21" y2="378.54" gradientTransform="matrix(73.02, 0.7, 0.7, -73.02, -8181.32, 27590.62)" gradientUnits="userSpaceOnUse"><stop offset="0" stop-color="#8fc31f"/><stop offset="0.14" stop-color="#89c121"/><stop offset="0.31" stop-color="#79bb27"/><stop offset="0.52" stop-color="#5eb030"/><stop offset="0.73" stop-color="#38a23d"/><stop offset="0.96" stop-color="#08904d"/><stop offset="1" stop-color="#008d50"/></linearGradient></defs><g id="레이어_2" data-name="레이어 2"><g id="Layer_1" data-name="Layer 1"><path class="cls-1" d="M35.91,14.47a10.74,10.74,0,0,0-3.74-2.22,9.89,9.89,0,0,0-3-.65c-.9,0-1.67.28-1.87,1.19-.37,1.72-.2,16.49-.07,18.19.1,1.26.63,2,2.1,2C39.56,32.78,42.25,20.33,35.91,14.47Z"/><path class="cls-2" d="M47.68,2.61a9.82,9.82,0,0,0-3.4-2A9.08,9.08,0,0,0,41.52,0c-.83,0-1.52.27-1.71,1.08-.33,1.56-.17,15-.05,16.53a1.65,1.65,0,0,0,1.9,1.78C51,19.23,53.44,7.93,47.68,2.61Z"/><path class="cls-3" d="M51.79,15.08a12.2,12.2,0,0,0-4.26-2.54,11.38,11.38,0,0,0-3.47-.74c-1,0-1.92.32-2.14,1.35-.44,2-.23,18.81-.08,20.77.12,1.43.71,2.26,2.39,2.23C56,36,59,21.76,51.79,15.08Z"/><path class="cls-4" d="M5,40.84H0V54.49H5c4.12,0,7.11-2.86,7.11-6.8,0-4.1-2.86-6.85-7.12-6.85M9.7,47.68A4.46,4.46,0,0,1,4.93,52.4H2.41V42.93H4.93A4.39,4.39,0,0,1,9.7,47.68Z"/><path class="cls-4" d="M21.84,47.43a3.77,3.77,0,0,0,1.48-3.09c0-2.19-1.76-3.5-4.71-3.5H13.19V54.49h5.52C22,54.49,24,53,24,50.6a3.27,3.27,0,0,0-2.19-3.17m-4.13-1a1,1,0,0,0-.78.79,1.19,1.19,0,0,0,.19.89.84.84,0,0,0,.55.36c.32.05.66.06,1,.08,1.08,0,2.22.1,2.73,1a1.8,1.8,0,0,1-.12,1.83,2.77,2.77,0,0,1-2.22,1H15.6V42.93h2.76c1.81,0,2.55.52,2.55,1.63a1.83,1.83,0,0,1-.69,1.5,2.86,2.86,0,0,1-1.6.32A4.8,4.8,0,0,0,17.71,46.44Z"/><path class="cls-4" d="M38.79,45H37.26V40.84H35.05V41a.68.68,0,0,0,.4.68V53.45a.86.86,0,0,0,.27.62.86.86,0,0,0,1.27,0,.86.86,0,0,0,.27-.62V46.61h1.53a.82.82,0,0,0,.82-.81.75.75,0,0,0-.24-.57A.78.78,0,0,0,38.79,45Z"/><path class="cls-4" d="M34.18,48.88a11.62,11.62,0,0,1-2-2.26,5.84,5.84,0,0,1-.94-3.37V43h2.37a.75.75,0,0,0,.75-.76.75.75,0,0,0-.22-.55.71.71,0,0,0-.53-.24H27a.75.75,0,0,0-.54.24.73.73,0,0,0-.23.55.7.7,0,0,0,.23.54A.76.76,0,0,0,27,43h2.46v.17a6.31,6.31,0,0,1-1,3.52A10.06,10.06,0,0,1,26.29,49a.71.71,0,0,0-.22.24.86.86,0,0,0-.1.28.75.75,0,0,0,.76.88,1,1,0,0,0,.58-.13A10.43,10.43,0,0,0,30,47.44c.13-.19.26-.4.37-.6a1.5,1.5,0,0,0,.19.32,12.43,12.43,0,0,0,2.64,3,.71.71,0,0,0,.22.13,1.34,1.34,0,0,0,.33,0,.79.79,0,0,0,.61-.3.67.67,0,0,0,.16-.6.66.66,0,0,0-.1-.25A1.39,1.39,0,0,0,34.18,48.88Z"/><path class="cls-4" d="M51.64,52.64H45.13a.41.41,0,0,1-.47-.46v-2.4H42.41v.15a.68.68,0,0,0,.43.69v2q0,1.59,1.77,1.59h7a.8.8,0,0,0,.79-.77.84.84,0,0,0-.79-.78Z"/><path class="cls-4" d="M44.34,46.11a3.46,3.46,0,0,0,.36-.62,1.27,1.27,0,0,0,.2.34,12.17,12.17,0,0,0,2.65,2.91.52.52,0,0,0,.22.14,1.3,1.3,0,0,0,.31,0,.76.76,0,0,0,.61-.29.7.7,0,0,0,.18-.62.63.63,0,0,0-.11-.26l-.23-.27a9.47,9.47,0,0,1-2-2.18,5.83,5.83,0,0,1-1-3.22v-.88H43.32v.16a.67.67,0,0,0,.42.68,5.91,5.91,0,0,1-1,3.33,9.89,9.89,0,0,1-2.16,2.28,1,1,0,0,0-.21.25,1,1,0,0,0-.1.28.75.75,0,0,0,.14.57.78.78,0,0,0,.62.31,1,1,0,0,0,.57-.14A10.07,10.07,0,0,0,44.34,46.11Z"/><path class="cls-4" d="M53.21,44.35H51.84V40.84H49.62V41a.69.69,0,0,0,.41.68v8.18a.87.87,0,0,0,.27.64.9.9,0,0,0,.64.26.85.85,0,0,0,.62-.26.84.84,0,0,0,.28-.64V45.93h1.37a.77.77,0,0,0,.79-.79.75.75,0,0,0-.79-.79Z"/><path class="cls-4" d="M58.82,46.17a4,4,0,0,0,1.27.71,4.46,4.46,0,0,0,1.5.25,4.61,4.61,0,0,0,1.52-.25,4.08,4.08,0,0,0,1.26-.71,3.47,3.47,0,0,0,.84-1.08,3.06,3.06,0,0,0,0-2.6,3.59,3.59,0,0,0-.84-1.08,4.08,4.08,0,0,0-1.26-.71,4.89,4.89,0,0,0-1.52-.25,4.72,4.72,0,0,0-1.5.25,4,4,0,0,0-1.27.71A3.59,3.59,0,0,0,58,42.49a3.06,3.06,0,0,0,0,2.6A3.47,3.47,0,0,0,58.82,46.17Zm1.27-3.68a2.27,2.27,0,0,1,1.5-.53,2.3,2.3,0,0,1,1.51.53,1.7,1.7,0,0,1,0,2.63,2.3,2.3,0,0,1-1.51.53,2.27,2.27,0,0,1-1.5-.53,1.7,1.7,0,0,1,0-2.63Z"/><path class="cls-4" d="M67.44,47.6H55.72a.74.74,0,0,0-.77.77.78.78,0,0,0,.22.55.75.75,0,0,0,.55.22h5.12v1.32a.92.92,0,0,0,1.57.65.83.83,0,0,0,.28-.65V49.14h4.75a.75.75,0,0,0,.55-.22.81.81,0,0,0,0-1.11A.79.79,0,0,0,67.44,47.6Z"/><path class="cls-4" d="M65.92,52.64H59.16a.41.41,0,0,1-.47-.46v-2H56.43v.15a.66.66,0,0,0,.44.68v1.6c0,1.06.59,1.59,1.78,1.59h7.27a.7.7,0,0,0,.54-.22.72.72,0,0,0,.22-.55.74.74,0,0,0-.22-.55A.71.71,0,0,0,65.92,52.64Z"/><path class="cls-4" d="M78.84,50.06a4.08,4.08,0,0,0-1.24-.6,5.19,5.19,0,0,0-3,0,4.26,4.26,0,0,0-1.25.6,3,3,0,0,0-.82.94,2.45,2.45,0,0,0-.29,1.15,2.4,2.4,0,0,0,.29,1.13,3,3,0,0,0,.82.94,4.54,4.54,0,0,0,1.25.61,5.43,5.43,0,0,0,3,0,4.35,4.35,0,0,0,1.24-.61,2.92,2.92,0,0,0,.82-.94,2.3,2.3,0,0,0,.3-1.13,2.35,2.35,0,0,0-.3-1.15A2.92,2.92,0,0,0,78.84,50.06Zm-1.25,3.1a2.73,2.73,0,0,1-3,0,1.22,1.22,0,0,1,0-2.07,2.73,2.73,0,0,1,3,0,1.22,1.22,0,0,1,0,2.07Z"/><path class="cls-4" d="M82.49,47.58a.7.7,0,0,0-.52-.21H80V46.11a.88.88,0,0,0-.26-.63.85.85,0,0,0-.29-.19A3.47,3.47,0,0,0,80,44.6a2.62,2.62,0,0,0,.31-1.21A2.56,2.56,0,0,0,80,42.18a3.18,3.18,0,0,0-.87-1,4.07,4.07,0,0,0-1.35-.67,5.78,5.78,0,0,0-1.63-.23,5.93,5.93,0,0,0-1.65.23,4.11,4.11,0,0,0-1.34.67,3.18,3.18,0,0,0-.87,1,2.45,2.45,0,0,0-.31,1.21,2.51,2.51,0,0,0,.31,1.21,3,3,0,0,0,.51.68.72.72,0,0,0-.32.2.85.85,0,0,0-.27.63v1.26h-2a.7.7,0,0,0-.52.21.76.76,0,0,0,0,1.05.67.67,0,0,0,.52.22H82a.67.67,0,0,0,.52-.22.74.74,0,0,0,0-1.05ZM73.9,42.73a1.89,1.89,0,0,1,.5-.56,2.28,2.28,0,0,1,.77-.36,3.7,3.7,0,0,1,1.87,0,2.23,2.23,0,0,1,.76.36,1.8,1.8,0,0,1,.51.56,1.31,1.31,0,0,1,.18.66,1.35,1.35,0,0,1-.18.67,1.66,1.66,0,0,1-.51.55A2.07,2.07,0,0,1,77,45a3.54,3.54,0,0,1-.93.13,3.5,3.5,0,0,1-.94-.13,2.12,2.12,0,0,1-.77-.37,1.74,1.74,0,0,1-.5-.55,1.35,1.35,0,0,1-.18-.67A1.31,1.31,0,0,1,73.9,42.73ZM74,46.11v0a4,4,0,0,0,.48.19,5.27,5.27,0,0,0,1.65.25,5.15,5.15,0,0,0,1.63-.25,4.5,4.5,0,0,0,.44-.16h0v1.26H74Z"/></g></g></svg>