<svg xmlns="http://www.w3.org/2000/svg" xmlns:xlink="http://www.w3.org/1999/xlink" viewBox="0 0 114.54 31.49"><defs><style>.cls-1{fill:url(#linear-gradient);}.cls-2{fill:url(#linear-gradient-2);}.cls-3{fill:url(#linear-gradient-3);}.cls-4{fill:#007f41;}</style><linearGradient id="linear-gradient" x1="489.69" y1="406.57" x2="489.89" y2="406.57" gradientTransform="matrix(-55.21, -0.53, -0.53, 55.21, 27258.74, -22167.7)" gradientUnits="userSpaceOnUse"><stop offset="0.1" stop-color="#ee7800"/><stop offset="0.25" stop-color="#ec7202"/><stop offset="0.46" stop-color="#e56207"/><stop offset="0.69" stop-color="#db470f"/><stop offset="0.93" stop-color="#cc211a"/><stop offset="1" stop-color="#c8161d"/></linearGradient><linearGradient id="linear-gradient-2" x1="450.58" y1="409.23" x2="450.79" y2="409.23" gradientTransform="matrix(49.41, 0.47, 0.47, -49.41, -22445.12, 20016.14)" gradientUnits="userSpaceOnUse"><stop offset="0" stop-color="#20aee5"/><stop offset="0.55" stop-color="#0f7fc4"/><stop offset="1" stop-color="#0054a7"/></linearGradient><linearGradient id="linear-gradient-3" x1="457.19" y1="409.6" x2="457.39" y2="409.6" gradientTransform="matrix(73.02, 0.7, 0.7, -73.02, -33659.33, 29612.92)" gradientUnits="userSpaceOnUse"><stop offset="0" stop-color="#8fc31f"/><stop offset="0.14" stop-color="#89c121"/><stop offset="0.31" stop-color="#79bb27"/><stop offset="0.52" stop-color="#5eb030"/><stop offset="0.73" stop-color="#38a23d"/><stop offset="0.96" stop-color="#08904d"/><stop offset="1" stop-color="#008d50"/></linearGradient></defs><g id="레이어_2" data-name="레이어 2"><g id="Layer_1" data-name="Layer 1"><path class="cls-1" d="M7.73,12.61a9.26,9.26,0,0,0-3.26-1.95,9,9,0,0,0-2.64-.56c-.79,0-1.46.25-1.63,1C-.13,12.63,0,25.5.14,27c.08,1.09.54,1.73,1.83,1.7C10.91,28.55,13.26,17.71,7.73,12.61Z"/><path class="cls-2" d="M18,2.28A8.53,8.53,0,0,0,15,.52,7.65,7.65,0,0,0,12.62,0c-.72,0-1.33.23-1.49.94-.29,1.36-.15,13-.05,14.39.08,1,.49,1.57,1.66,1.56C20.86,16.75,23,6.91,18,2.28Z"/><path class="cls-3" d="M21.57,13.13a10.82,10.82,0,0,0-3.72-2.21,9.82,9.82,0,0,0-3-.65c-.9,0-1.67.29-1.87,1.19-.38,1.7-.2,16.38-.06,18.08.1,1.25.61,2,2.07,1.95C25.18,31.33,27.87,19,21.57,13.13Z"/><path class="cls-4" d="M33.91,10.39H28.72V24.56h5.19c4.28,0,7.38-3,7.38-7.06,0-4.25-3-7.11-7.38-7.11m4.88,7.09a4.64,4.64,0,0,1-4.95,4.91H31.22V12.56h2.62A4.56,4.56,0,0,1,38.79,17.48Z"/><path class="cls-4" d="M51.39,17.23A3.94,3.94,0,0,0,52.92,14c0-2.27-1.83-3.63-4.89-3.63H42.41V24.56h5.72c3.46,0,5.52-1.51,5.52-4a3.4,3.4,0,0,0-2.26-3.28m-4.29-1a1,1,0,0,0-.81.82,1.23,1.23,0,0,0,.2.92.83.83,0,0,0,.57.36,8.56,8.56,0,0,0,1.06.09c1.11.05,2.3.1,2.82,1.09a1.85,1.85,0,0,1-.11,1.9,2.89,2.89,0,0,1-2.31,1H44.91V12.56h2.86c1.88,0,2.64.54,2.64,1.69a1.89,1.89,0,0,1-.71,1.56,2.89,2.89,0,0,1-1.66.32A5.12,5.12,0,0,0,47.1,16.21Z"/><path class="cls-4" d="M69,14.71H67.38V10.39h-2.3v.17a.71.71,0,0,0,.42.71v12.2a.86.86,0,0,0,.28.65.91.91,0,0,0,.67.28.9.9,0,0,0,.65-.28.86.86,0,0,0,.28-.65V16.38H69a.86.86,0,0,0,.6-.25.79.79,0,0,0,.25-.59.78.78,0,0,0-.25-.59A.85.85,0,0,0,69,14.71Z"/><path class="cls-4" d="M64.18,18.74a12.51,12.51,0,0,1-2.07-2.35,6.09,6.09,0,0,1-1-3.5v-.26h2.46a.79.79,0,0,0,.79-.78.82.82,0,0,0-.23-.58.77.77,0,0,0-.56-.24h-6.9a.82.82,0,0,0-.81.82.74.74,0,0,0,.24.55.77.77,0,0,0,.57.23h2.55v.18a6.5,6.5,0,0,1-1,3.65A10.21,10.21,0,0,1,56,18.86a1.05,1.05,0,0,0-.22.26.84.84,0,0,0-.1.29.76.76,0,0,0,.15.59.83.83,0,0,0,.64.33,1.12,1.12,0,0,0,.6-.15,10.73,10.73,0,0,0,2.79-2.94c.14-.2.27-.41.39-.62a1.57,1.57,0,0,0,.19.33A12.7,12.7,0,0,0,63.17,20a.55.55,0,0,0,.23.14,1,1,0,0,0,.33,0,.85.85,0,0,0,.65-.3.74.74,0,0,0,.16-.63.58.58,0,0,0-.11-.26A1.18,1.18,0,0,0,64.18,18.74Z"/><path class="cls-4" d="M82.3,22.64H75.55c-.33,0-.5-.16-.5-.48V19.67H72.73v.16a.68.68,0,0,0,.45.7v2.06q0,1.65,1.83,1.65H82.3a.8.8,0,0,0,.57-.23.75.75,0,0,0,.24-.57.77.77,0,0,0-.24-.56A.81.81,0,0,0,82.3,22.64Z"/><path class="cls-4" d="M74.73,15.86a4.09,4.09,0,0,0,.37-.64,1.36,1.36,0,0,0,.21.35,12.51,12.51,0,0,0,2.75,3,.52.52,0,0,0,.22.14,1.39,1.39,0,0,0,.32,0,.78.78,0,0,0,.64-.31.68.68,0,0,0,.18-.64.63.63,0,0,0-.11-.26l-.24-.29A9.93,9.93,0,0,1,77,15a6,6,0,0,1-1-3.34v-.91H73.67v.16a.69.69,0,0,0,.44.7,6,6,0,0,1-1,3.46,10,10,0,0,1-2.23,2.37.77.77,0,0,0-.22.26.67.67,0,0,0-.1.29.76.76,0,0,0,.14.59.84.84,0,0,0,.65.32,1.09,1.09,0,0,0,.59-.14A10.57,10.57,0,0,0,74.73,15.86Z"/><path class="cls-4" d="M83.93,14H82.51V10.39h-2.3v.17a.71.71,0,0,0,.42.71v8.49a.87.87,0,0,0,.28.66.94.94,0,0,0,.66.28.9.9,0,0,0,.65-.28.88.88,0,0,0,.29-.66V15.67h1.42a.78.78,0,0,0,.59-.24.82.82,0,0,0,.23-.58.8.8,0,0,0-.23-.58A.78.78,0,0,0,83.93,14Z"/><path class="cls-4" d="M89.75,15.93a4.27,4.27,0,0,0,1.31.73,4.91,4.91,0,0,0,1.56.26,4.83,4.83,0,0,0,1.57-.26,4.21,4.21,0,0,0,1.32-.73,3.76,3.76,0,0,0,.87-1.13,3.07,3.07,0,0,0,.3-1.35,3,3,0,0,0-.3-1.34A3.76,3.76,0,0,0,95.51,11a4.21,4.21,0,0,0-1.32-.73A4.58,4.58,0,0,0,92.62,10a4.64,4.64,0,0,0-1.56.26,4.27,4.27,0,0,0-1.31.73,3.47,3.47,0,0,0-.87,1.13,3,3,0,0,0-.31,1.34,3.08,3.08,0,0,0,.31,1.35A3.47,3.47,0,0,0,89.75,15.93Zm1.32-3.82a2.32,2.32,0,0,1,1.55-.55,2.35,2.35,0,0,1,1.57.55,1.75,1.75,0,0,1,0,2.72,2.35,2.35,0,0,1-1.57.55,2.32,2.32,0,0,1-1.55-.55,1.75,1.75,0,0,1,0-2.72Z"/><path class="cls-4" d="M98.69,17.4H86.54a.82.82,0,0,0-.58.23.78.78,0,0,0-.23.58.79.79,0,0,0,.81.8h5.31v1.36a.9.9,0,0,0,.28.68,1,1,0,0,0,1.35,0,.9.9,0,0,0,.28-.68V19h4.93a.79.79,0,0,0,.57-.23.81.81,0,0,0,.23-.57.78.78,0,0,0-.23-.58A.79.79,0,0,0,98.69,17.4Z"/><path class="cls-4" d="M97.12,22.64h-7a.42.42,0,0,1-.48-.48V20.07H87.27v.16a.7.7,0,0,0,.45.71v1.65c0,1.1.62,1.65,1.85,1.65h7.55a.76.76,0,0,0,.56-.22.78.78,0,0,0,.22-.58.78.78,0,0,0-.22-.57A.73.73,0,0,0,97.12,22.64Z"/><path class="cls-4" d="M110.52,20a4.31,4.31,0,0,0-1.29-.63,5.57,5.57,0,0,0-3.1,0,4.43,4.43,0,0,0-1.29.63,2.83,2.83,0,0,0-.85,1,2.37,2.37,0,0,0-.31,1.18A2.39,2.39,0,0,0,104,23.3a3,3,0,0,0,.85,1,4.68,4.68,0,0,0,1.29.62,5.34,5.34,0,0,0,3.1,0,4.54,4.54,0,0,0,1.29-.62,3,3,0,0,0,.85-1,2.39,2.39,0,0,0,.31-1.18,2.37,2.37,0,0,0-.31-1.18A2.83,2.83,0,0,0,110.52,20Zm-1.3,3.22a2.86,2.86,0,0,1-3.08,0,1.28,1.28,0,0,1,0-2.16,2.86,2.86,0,0,1,3.08,0,1.27,1.27,0,0,1,0,2.16Z"/><path class="cls-4" d="M114.31,17.39a.74.74,0,0,0-.54-.23h-2.06v-1.3a.93.93,0,0,0-.27-.66,1,1,0,0,0-.3-.2,3,3,0,0,0,.54-.7A2.71,2.71,0,0,0,112,13a2.68,2.68,0,0,0-.32-1.26,3.4,3.4,0,0,0-.9-1,4.26,4.26,0,0,0-1.4-.69,6.14,6.14,0,0,0-3.4,0,4.36,4.36,0,0,0-1.4.69,3.54,3.54,0,0,0-.9,1,2.68,2.68,0,0,0-.32,1.26,2.71,2.71,0,0,0,.32,1.26,3.17,3.17,0,0,0,.53.69,1.15,1.15,0,0,0-.33.21.9.9,0,0,0-.28.66v1.3h-2.07a.77.77,0,0,0-.75.76.76.76,0,0,0,.22.56.69.69,0,0,0,.53.22h12.24a.73.73,0,0,0,.54-.22.77.77,0,0,0,.23-.56A.72.72,0,0,0,114.31,17.39Zm-8.92-5a1.93,1.93,0,0,1,.53-.58,2.31,2.31,0,0,1,.79-.37,3.44,3.44,0,0,1,1-.13,3.39,3.39,0,0,1,1,.13,2.46,2.46,0,0,1,.8.37,1.89,1.89,0,0,1,.52.58,1.41,1.41,0,0,1,0,1.38,1.76,1.76,0,0,1-.52.57,2.3,2.3,0,0,1-.8.39,3.39,3.39,0,0,1-1,.13,3.44,3.44,0,0,1-1-.13,2.17,2.17,0,0,1-.79-.39,1.79,1.79,0,0,1-.53-.57,1.41,1.41,0,0,1,0-1.38Zm.09,3.51v0c.16.07.32.14.5.2a5.9,5.9,0,0,0,3.4,0,3,3,0,0,0,.45-.18h0v1.3h-4.35Z"/></g></g></svg>