<svg xmlns="http://www.w3.org/2000/svg" xmlns:xlink="http://www.w3.org/1999/xlink" viewBox="0 0 114.02 31.49"><defs><style>.cls-1{fill:url(#linear-gradient);}.cls-2{fill:url(#linear-gradient-2);}.cls-3{fill:url(#linear-gradient-3);}.cls-4{fill:#007f41;}</style><linearGradient id="linear-gradient" x1="742.69" y1="335.29" x2="742.89" y2="335.29" gradientTransform="matrix(-55.21, -0.53, -0.53, 55.21, 41188.1, -18099.88)" gradientUnits="userSpaceOnUse"><stop offset="0.1" stop-color="#ee7800"/><stop offset="0.25" stop-color="#ec7202"/><stop offset="0.46" stop-color="#e56207"/><stop offset="0.69" stop-color="#db470f"/><stop offset="0.93" stop-color="#cc211a"/><stop offset="1" stop-color="#c8161d"/></linearGradient><linearGradient id="linear-gradient-2" x1="694.08" y1="335.08" x2="694.28" y2="335.08" gradientTransform="matrix(49.41, 0.47, 0.47, -49.41, -34441.1, 16237.78)" gradientUnits="userSpaceOnUse"><stop offset="0" stop-color="#20aee5"/><stop offset="0.55" stop-color="#0f7fc4"/><stop offset="1" stop-color="#0054a7"/></linearGradient><linearGradient id="linear-gradient-3" x1="702.31" y1="335.94" x2="702.51" y2="335.94" gradientTransform="matrix(73.02, 0.7, 0.7, -73.02, -51507.06, 24063.52)" gradientUnits="userSpaceOnUse"><stop offset="0" stop-color="#8fc31f"/><stop offset="0.14" stop-color="#89c121"/><stop offset="0.31" stop-color="#79bb27"/><stop offset="0.52" stop-color="#5eb030"/><stop offset="0.73" stop-color="#38a23d"/><stop offset="0.96" stop-color="#08904d"/><stop offset="1" stop-color="#008d50"/></linearGradient></defs><g id="레이어_2" data-name="레이어 2"><g id="Layer_1" data-name="Layer 1"><path class="cls-1" d="M7.73,12.61a9.26,9.26,0,0,0-3.26-1.95,9,9,0,0,0-2.64-.56c-.79,0-1.46.25-1.63,1C-.13,12.63,0,25.5.14,27c.08,1.09.54,1.73,1.83,1.7C10.91,28.55,13.26,17.71,7.73,12.61Z"/><path class="cls-2" d="M18,2.28A8.71,8.71,0,0,0,15,.51,7.88,7.88,0,0,0,12.62,0c-.72,0-1.33.23-1.49.94-.29,1.36-.15,13-.05,14.39.08,1,.49,1.57,1.66,1.56C20.86,16.75,23,6.91,18,2.28Z"/><path class="cls-3" d="M21.57,13.13a10.82,10.82,0,0,0-3.72-2.21,9.82,9.82,0,0,0-3-.65c-.9,0-1.68.29-1.87,1.19-.38,1.7-.2,16.38-.06,18.08.1,1.25.61,2,2.08,1.95C25.18,31.33,27.87,19,21.57,13.13Z"/><path class="cls-4" d="M33.91,10.39H28.72V24.56h5.19c4.28,0,7.38-3,7.38-7.06,0-4.25-3-7.11-7.38-7.11m4.88,7.09a4.64,4.64,0,0,1-4.95,4.91H31.23V12.56h2.61A4.56,4.56,0,0,1,38.79,17.48Z"/><path class="cls-4" d="M51.39,17.23A3.94,3.94,0,0,0,52.92,14c0-2.27-1.83-3.63-4.89-3.63H42.42V24.56h5.71c3.46,0,5.52-1.52,5.52-4a3.4,3.4,0,0,0-2.26-3.28m-4.29-1a1,1,0,0,0-.81.82,1.28,1.28,0,0,0,.2.92.83.83,0,0,0,.57.36,8.73,8.73,0,0,0,1.06.09c1.12.05,2.3.1,2.83,1.09a1.88,1.88,0,0,1-.12,1.9,2.88,2.88,0,0,1-2.3,1H44.92V12.56h2.86c1.89,0,2.65.54,2.65,1.69a1.87,1.87,0,0,1-.72,1.56,2.85,2.85,0,0,1-1.65.32A5.3,5.3,0,0,0,47.1,16.21Z"/><path class="cls-4" d="M66,10.56a.7.7,0,0,0,.43.71v3H64.18a.77.77,0,0,0-.56.24.8.8,0,0,0-.24.57.74.74,0,0,0,.24.56.79.79,0,0,0,.56.22h2.23v7.66a.92.92,0,0,0,.28.65.9.9,0,0,0,.65.28.87.87,0,0,0,.66-.28.91.91,0,0,0,.27-.65V10.39H66ZM64.64,19a1.74,1.74,0,0,0-.23-.25,11.23,11.23,0,0,1-2.07-2.35,6,6,0,0,1-1-3.5v-.25H63.8a.74.74,0,0,0,.55-.24.76.76,0,0,0,.23-.55.82.82,0,0,0-.23-.58A.74.74,0,0,0,63.8,11H56.91a.75.75,0,0,0-.57.24.78.78,0,0,0-.24.58.74.74,0,0,0,.24.55.75.75,0,0,0,.57.24h2.55v.17a6.51,6.51,0,0,1-1,3.65,9.92,9.92,0,0,1-2.23,2.4,1.16,1.16,0,0,0-.24.26.67.67,0,0,0-.1.29A.74.74,0,0,0,56,20a.82.82,0,0,0,.63.33,1.06,1.06,0,0,0,.59-.15,10.73,10.73,0,0,0,2.79-2.94,4.57,4.57,0,0,0,.39-.62,2.17,2.17,0,0,0,.19.33A12.93,12.93,0,0,0,63.38,20a.49.49,0,0,0,.23.14,1.06,1.06,0,0,0,.33,0,.8.8,0,0,0,.64-.3.7.7,0,0,0,.16-.63A.56.56,0,0,0,64.64,19Zm7.65-2.64a.72.72,0,0,0,.48.12l.28,0a7.26,7.26,0,0,0,1.44-.4,8.15,8.15,0,0,0,1.22-.6A7.06,7.06,0,0,0,77.53,14a7,7,0,0,0,1.83,1.44,8,8,0,0,0,1.21.6,7.36,7.36,0,0,0,1.45.4l.27,0a.73.73,0,0,0,.49-.12,1.11,1.11,0,0,0,.24-.26.89.89,0,0,0,0-.68.65.65,0,0,0-.18-.25.61.61,0,0,0-.3-.15,7.55,7.55,0,0,1-1.41-.42A6.67,6.67,0,0,1,80,14,4.75,4.75,0,0,1,79,13H82a.77.77,0,0,0,.52-.21.74.74,0,0,0,.23-.54.72.72,0,0,0-.23-.53.75.75,0,0,0-.52-.23H78.55v-1.3H76.48v1.3H73a.79.79,0,0,0-.76.76A.75.75,0,0,0,73,13h3.11A4.5,4.5,0,0,1,75,14a5.79,5.79,0,0,1-1.11.59,7.12,7.12,0,0,1-1.41.42.62.62,0,0,0-.29.15.69.69,0,0,0-.19.25.9.9,0,0,0,0,.68A.8.8,0,0,0,72.29,16.35Zm11.34.8H71.39a.73.73,0,0,0-.54.22.79.79,0,0,0,0,1.09.74.74,0,0,0,.54.23h5.19v1.48H73.14a.79.79,0,0,0-.55.22.69.69,0,0,0,0,1.05.76.76,0,0,0,.55.23h7.4v2a.87.87,0,0,0,.28.63.93.93,0,0,0,.67.26.89.89,0,0,0,.66-.26.86.86,0,0,0,.27-.63v-3.5h-4V18.69h5.16a.77.77,0,0,0,.54-1.32A.73.73,0,0,0,83.63,17.15ZM89.71,16a4.39,4.39,0,0,0,1.31.73,4.56,4.56,0,0,0,1.55.27,4.63,4.63,0,0,0,1.57-.27,4.34,4.34,0,0,0,1.3-.73,3.4,3.4,0,0,0,.87-1.14,3.16,3.16,0,0,0,0-2.73A3.4,3.4,0,0,0,95.44,11a4.34,4.34,0,0,0-1.3-.73A4.62,4.62,0,0,0,92.57,10a4.55,4.55,0,0,0-1.55.26,4.39,4.39,0,0,0-1.31.73,3.51,3.51,0,0,0-.86,1.14,3.16,3.16,0,0,0,0,2.73A3.51,3.51,0,0,0,89.71,16ZM91,12.12a2.28,2.28,0,0,1,1.54-.56,2.31,2.31,0,0,1,1.56.56,1.8,1.8,0,0,1,.64,1.38,1.77,1.77,0,0,1-.64,1.38,2.27,2.27,0,0,1-1.56.56A2.23,2.23,0,0,1,91,14.88a1.74,1.74,0,0,1-.64-1.38A1.77,1.77,0,0,1,91,12.12Zm6.08,10.52h-7a.43.43,0,0,1-.49-.48V19.89H87.32v.18a.69.69,0,0,0,.45.7v1.82c0,1.1.61,1.65,1.84,1.65h7.5a.75.75,0,0,0,.56-.22.78.78,0,0,0,.23-.58.79.79,0,0,0-.23-.57A.75.75,0,0,0,97.11,22.64Zm1.53-5.17H86.48a.8.8,0,0,0-.57.22.78.78,0,0,0-.23.58.79.79,0,0,0,.23.57.81.81,0,0,0,.57.23H98.64a.81.81,0,0,0,.57-.23.79.79,0,0,0,.23-.57.78.78,0,0,0-.23-.58A.8.8,0,0,0,98.64,17.47Zm8.46-.16a3.36,3.36,0,0,0,.77-1.07,3.11,3.11,0,0,0,.27-1.29,2.91,2.91,0,0,0-.27-1.26,3.26,3.26,0,0,0-.5-.73h.39a.73.73,0,0,0,.52-.22.74.74,0,0,0,.22-.52.79.79,0,0,0-.22-.53.7.7,0,0,0-.52-.23h-2.17v-1.3h-2v1.3h-2.25a.71.71,0,0,0-.52.23.77.77,0,0,0-.21.53.73.73,0,0,0,.21.52.74.74,0,0,0,.52.22h.43a3,3,0,0,0-.51.73A2.91,2.91,0,0,0,101,15a3.11,3.11,0,0,0,.27,1.29,3.24,3.24,0,0,0,.78,1.07,3.52,3.52,0,0,0,1.12.69,3.78,3.78,0,0,0,3.9-.69Zm-2.51-.56a1.7,1.7,0,0,1-1.28-.55,1.87,1.87,0,0,1,0-2.57,1.7,1.7,0,0,1,1.28-.55,1.68,1.68,0,0,1,1.27.55,1.85,1.85,0,0,1,0,2.57A1.68,1.68,0,0,1,104.59,16.75Zm7.65,2.31a4.38,4.38,0,0,0-1.34-.75,4.84,4.84,0,0,0-1.63-.26,4.73,4.73,0,0,0-1.61.26,4.45,4.45,0,0,0-1.33.75,3.29,3.29,0,0,0-.89,1.11,3,3,0,0,0-.31,1.34,3,3,0,0,0,.31,1.35,3.13,3.13,0,0,0,.89,1.09,4.27,4.27,0,0,0,1.33.76,4.73,4.73,0,0,0,1.61.27,4.85,4.85,0,0,0,1.63-.27,4.21,4.21,0,0,0,1.34-.76,3,3,0,0,0,.88-1.09,3,3,0,0,0,.3-1.35,3,3,0,0,0-.3-1.34A3.14,3.14,0,0,0,112.24,19.06Zm-1.33,3.83a2.58,2.58,0,0,1-3.26,0,1.76,1.76,0,0,1-.66-1.38,1.78,1.78,0,0,1,.66-1.39,2.62,2.62,0,0,1,3.26,0,1.76,1.76,0,0,1,.67,1.39A1.74,1.74,0,0,1,110.91,22.89Zm1.34-12.5v2.84h-1.2V10.39h-2.18v.17a.71.71,0,0,0,.41.71v5.55a.8.8,0,0,0,.27.61.85.85,0,0,0,.63.26.8.8,0,0,0,.61-.26.83.83,0,0,0,.26-.61V14.74h1.2V17.1a.86.86,0,0,0,.27.63.84.84,0,0,0,.62.27.83.83,0,0,0,.62-.27.89.89,0,0,0,.26-.63V10.39Z"/></g></g></svg>