<svg xmlns="http://www.w3.org/2000/svg" xmlns:xlink="http://www.w3.org/1999/xlink" viewBox="0 0 82.21 54.91"><defs><style>.cls-1{fill:url(#linear-gradient);}.cls-2{fill:url(#linear-gradient-2);}.cls-3{fill:url(#linear-gradient-3);}.cls-4{fill:#007f41;}</style><linearGradient id="linear-gradient" x1="-55.7" y1="376.43" x2="-55.47" y2="376.43" gradientTransform="matrix(-55.21, -0.53, -0.53, 55.21, -2837.5, -20788.27)" gradientUnits="userSpaceOnUse"><stop offset="0.1" stop-color="#ee7800"/><stop offset="0.25" stop-color="#ec7202"/><stop offset="0.46" stop-color="#e56207"/><stop offset="0.69" stop-color="#db470f"/><stop offset="0.93" stop-color="#cc211a"/><stop offset="1" stop-color="#c8161d"/></linearGradient><linearGradient id="linear-gradient-2" x1="-73.18" y1="378.05" x2="-72.95" y2="378.05" gradientTransform="matrix(49.41, 0.47, 0.47, -49.41, 3477.1, 18723.45)" gradientUnits="userSpaceOnUse"><stop offset="0" stop-color="#20aee5"/><stop offset="1" stop-color="#0054a7"/></linearGradient><linearGradient id="linear-gradient-3" x1="-70.26" y1="378.57" x2="-70.03" y2="378.57" gradientTransform="matrix(73.02, 0.7, 0.7, -73.02, 4907.14, 27717.13)" gradientUnits="userSpaceOnUse"><stop offset="0" stop-color="#8fc31f"/><stop offset="0.14" stop-color="#89c121"/><stop offset="0.31" stop-color="#79bb27"/><stop offset="0.52" stop-color="#5eb030"/><stop offset="0.73" stop-color="#38a23d"/><stop offset="0.96" stop-color="#08904d"/><stop offset="1" stop-color="#008d50"/></linearGradient></defs><g id="레이어_2" data-name="레이어 2"><g id="Layer_1" data-name="Layer 1"><path class="cls-1" d="M35.66,14.47a10.74,10.74,0,0,0-3.74-2.22,9.89,9.89,0,0,0-3-.65c-.9,0-1.67.28-1.87,1.19-.37,1.72-.2,16.49-.06,18.19.09,1.26.62,2,2.09,2C39.31,32.78,42,20.33,35.66,14.47Z"/><path class="cls-2" d="M47.43,2.61a9.82,9.82,0,0,0-3.4-2A9.08,9.08,0,0,0,41.27,0c-.83,0-1.52.27-1.71,1.08-.34,1.56-.17,15-.05,16.53a1.65,1.65,0,0,0,1.9,1.78C50.73,19.23,53.19,7.93,47.43,2.61Z"/><path class="cls-3" d="M51.54,15.08a12.15,12.15,0,0,0-4.27-2.54,11.24,11.24,0,0,0-3.46-.75c-1,0-1.92.33-2.14,1.36-.44,2-.23,18.81-.08,20.76.12,1.44.71,2.27,2.39,2.24C55.7,36,58.78,21.76,51.54,15.08Z"/><path class="cls-4" d="M5,40.85H0V54.5H5c4.13,0,7.12-2.86,7.12-6.8,0-4.1-2.86-6.86-7.12-6.85M9.7,47.68a4.47,4.47,0,0,1-4.77,4.73H2.41V42.94H4.93A4.39,4.39,0,0,1,9.7,47.68Z"/><path class="cls-4" d="M21.85,47.43a3.78,3.78,0,0,0,1.47-3.08c0-2.2-1.76-3.51-4.71-3.5H13.2V54.5h5.51C22,54.5,24,53,24,50.6a3.3,3.3,0,0,0-2.18-3.17m-4.14-1a1,1,0,0,0-.78.79,1.23,1.23,0,0,0,.19.89.83.83,0,0,0,.56.35,9.93,9.93,0,0,0,1,.09c1.07,0,2.21.09,2.72,1a1.82,1.82,0,0,1-.11,1.83,2.75,2.75,0,0,1-2.22.94l-.44,0h-3V42.94h2.76c1.82,0,2.55.52,2.55,1.63a1.8,1.8,0,0,1-.69,1.5,2.84,2.84,0,0,1-1.6.31A4.9,4.9,0,0,0,17.71,46.45Z"/><path class="cls-4" d="M35.91,41a.68.68,0,0,0,.41.68v2.85H34.17a.79.79,0,0,0-.77.77.75.75,0,0,0,.23.55.8.8,0,0,0,.54.21h2.15v7.38a.87.87,0,0,0,.28.63.86.86,0,0,0,.62.27.87.87,0,0,0,.64-.27.89.89,0,0,0,.26-.63V40.84H35.91Zm-1.29,8.12a1.7,1.7,0,0,0-.23-.24,11.21,11.21,0,0,1-2-2.26,5.72,5.72,0,0,1-1-3.37V43H33.8a.74.74,0,0,0,.54-.23.71.71,0,0,0,.22-.53.78.78,0,0,0-.22-.56.74.74,0,0,0-.54-.23H27.17a.79.79,0,0,0-.78.79.68.68,0,0,0,.23.53.75.75,0,0,0,.55.23h2.45v.17a6.2,6.2,0,0,1-1,3.51A9.61,9.61,0,0,1,26.5,49a.86.86,0,0,0-.22.25.66.66,0,0,0-.11.28.68.68,0,0,0,.16.57.74.74,0,0,0,.6.31,1,1,0,0,0,.57-.14,10.39,10.39,0,0,0,2.7-2.83,6.49,6.49,0,0,0,.37-.6,1.5,1.5,0,0,0,.19.32,12.36,12.36,0,0,0,2.64,2.94.5.5,0,0,0,.22.13,1,1,0,0,0,.32,0,.78.78,0,0,0,.62-.29.7.7,0,0,0,.16-.61A.73.73,0,0,0,34.62,49.13ZM42,46.59a.67.67,0,0,0,.47.12l.26,0a7.47,7.47,0,0,0,1.39-.39,9.26,9.26,0,0,0,1.18-.58A6.92,6.92,0,0,0,47,44.32a6.81,6.81,0,0,0,1.76,1.39,8.65,8.65,0,0,0,1.18.58,7.47,7.47,0,0,0,1.39.39l.26,0a.69.69,0,0,0,.47-.12.86.86,0,0,0,.23-.25.87.87,0,0,0,.05-.65.69.69,0,0,0-.18-.24.58.58,0,0,0-.29-.15,7,7,0,0,1-1.36-.41,5.6,5.6,0,0,1-1.09-.57,4.21,4.21,0,0,1-1.05-1h3a.73.73,0,0,0,.51-.21.67.67,0,0,0,.22-.51.7.7,0,0,0-.22-.52.73.73,0,0,0-.51-.21H48V40.62H46v1.26H42.67a.69.69,0,0,0-.51.21.74.74,0,0,0-.22.52.7.7,0,0,0,.22.51.69.69,0,0,0,.51.21h3a4.28,4.28,0,0,1-1.06,1,5.16,5.16,0,0,1-1.07.57,7,7,0,0,1-1.36.41.58.58,0,0,0-.29.15.51.51,0,0,0-.18.24.83.83,0,0,0,0,.65A.86.86,0,0,0,42,46.59Zm10.93.77H41.12a.68.68,0,0,0-.51.21.7.7,0,0,0-.21.53.68.68,0,0,0,.21.52.65.65,0,0,0,.51.22h5v1.43H42.81a.77.77,0,0,0-.53.21.69.69,0,0,0-.23.51.71.71,0,0,0,.23.51.74.74,0,0,0,.53.22H50v1.92a.8.8,0,0,0,.27.61.9.9,0,0,0,.64.26.86.86,0,0,0,.63-.26.8.8,0,0,0,.27-.61V50.27H48V48.84h5a.75.75,0,0,0,.74-.74.71.71,0,0,0-.22-.53A.72.72,0,0,0,52.92,47.36Zm5.86-1.12A4.08,4.08,0,0,0,60,47a4.63,4.63,0,0,0,3,0,4,4,0,0,0,1.27-.71,3.27,3.27,0,0,0,.83-1.1,3,3,0,0,0,.3-1.31,3,3,0,0,0-.3-1.32,3.37,3.37,0,0,0-.83-1.1,4,4,0,0,0-1.27-.7,4.46,4.46,0,0,0-3,0,4.06,4.06,0,0,0-1.26.7,3.37,3.37,0,0,0-.83,1.1,3,3,0,0,0-.3,1.32,3,3,0,0,0,.3,1.31A3.27,3.27,0,0,0,58.78,46.24Zm1.27-3.73A2.19,2.19,0,0,1,61.54,42a2.23,2.23,0,0,1,1.5.54,1.73,1.73,0,0,1,.62,1.33A1.7,1.7,0,0,1,63,45.17a2.18,2.18,0,0,1-1.5.54,2.14,2.14,0,0,1-1.49-.54,1.7,1.7,0,0,1-.62-1.33A1.73,1.73,0,0,1,60.05,42.51Zm5.87,10.14H59.2a.41.41,0,0,1-.46-.46V50H56.47v.17a.68.68,0,0,0,.44.68V52.6c0,1.07.59,1.6,1.78,1.6h7.23a.77.77,0,0,0,.54-.22.76.76,0,0,0,.21-.56.79.79,0,0,0-.21-.55A.73.73,0,0,0,65.92,52.65Zm1.46-5H55.67a.77.77,0,0,0-.55.21.78.78,0,0,0,.55,1.33H67.38a.76.76,0,0,0,.56-.22.81.81,0,0,0,0-1.11A.79.79,0,0,0,67.38,47.67Zm8.16-.16a3.29,3.29,0,0,0,.75-1,3,3,0,0,0,.26-1.24A2.79,2.79,0,0,0,76.29,44a3.1,3.1,0,0,0-.49-.71h.38a.72.72,0,0,0,.71-.71.73.73,0,0,0-.21-.51.66.66,0,0,0-.5-.22H74.09V40.62H72.2v1.26H70a.65.65,0,0,0-.51.22.73.73,0,0,0-.21.51.69.69,0,0,0,.21.5.68.68,0,0,0,.51.21h.4A2.78,2.78,0,0,0,70,44a2.66,2.66,0,0,0-.27,1.21A2.88,2.88,0,0,0,70,46.48a3.11,3.11,0,0,0,.74,1,3.5,3.5,0,0,0,2.43.91,3.65,3.65,0,0,0,1.33-.24A3.71,3.71,0,0,0,75.54,47.51ZM73.13,47a1.63,1.63,0,0,1-1.24-.53,1.78,1.78,0,0,1,0-2.47,1.69,1.69,0,0,1,2.46,0,1.78,1.78,0,0,1,0,2.47A1.62,1.62,0,0,1,73.13,47ZM80.5,49.2a4.22,4.22,0,0,0-1.3-.72,4.74,4.74,0,0,0-1.57-.26,4.67,4.67,0,0,0-1.55.26,4.12,4.12,0,0,0-1.28.72,3.06,3.06,0,0,0-.86,1.07,2.92,2.92,0,0,0-.3,1.3,3,3,0,0,0,1.16,2.35,4.35,4.35,0,0,0,1.28.73,4.67,4.67,0,0,0,1.55.26,4.74,4.74,0,0,0,1.57-.26,4.46,4.46,0,0,0,1.3-.73,3,3,0,0,0,.85-1.05,3.12,3.12,0,0,0,.29-1.3A3,3,0,0,0,80.5,49.2Zm-1.28,3.7a2.35,2.35,0,0,1-1.59.55,2.26,2.26,0,0,1-1.55-.55,1.7,1.7,0,0,1-.64-1.33,1.68,1.68,0,0,1,.64-1.34,2.26,2.26,0,0,1,1.55-.55,2.35,2.35,0,0,1,1.59.55,1.68,1.68,0,0,1,.64,1.34A1.7,1.7,0,0,1,79.22,52.9Zm1.29-12.06v2.74H79.35V40.84H77.24V41a.68.68,0,0,0,.41.68v5.36a.77.77,0,0,0,.25.58.84.84,0,0,0,.61.25.85.85,0,0,0,.84-.83V45h1.16v2.27a.83.83,0,0,0,.26.61.81.81,0,0,0,1.19,0,.82.82,0,0,0,.25-.61V40.84Z"/></g></g></svg>