<svg xmlns="http://www.w3.org/2000/svg" xmlns:xlink="http://www.w3.org/1999/xlink" viewBox="0 0 68.46 54.49"><defs><style>.cls-1{fill:url(#linear-gradient);}.cls-2{fill:url(#linear-gradient-2);}.cls-3{fill:url(#linear-gradient-3);}.cls-4{fill:#007f41;}</style><linearGradient id="linear-gradient" x1="-253.08" y1="376.4" x2="-252.85" y2="376.4" gradientTransform="matrix(-55.21, -0.53, -0.53, 55.21, -13741.46, -20890.37)" gradientUnits="userSpaceOnUse"><stop offset="0.1" stop-color="#ee7800"/><stop offset="0.25" stop-color="#ec7202"/><stop offset="0.46" stop-color="#e56207"/><stop offset="0.69" stop-color="#db470f"/><stop offset="0.93" stop-color="#cc211a"/><stop offset="1" stop-color="#c8161d"/></linearGradient><linearGradient id="linear-gradient-2" x1="-263.39" y1="378.08" x2="-263.16" y2="378.08" gradientTransform="matrix(49.41, 0.47, 0.47, -49.41, 12868.61, 18814.82)" gradientUnits="userSpaceOnUse"><stop offset="0" stop-color="#20aee5"/><stop offset="1" stop-color="#0054a7"/></linearGradient><linearGradient id="linear-gradient-3" x1="-261.7" y1="378.59" x2="-261.47" y2="378.59" gradientTransform="matrix(73.02, 0.7, 0.7, -73.02, 18879.65, 27852.2)" gradientUnits="userSpaceOnUse"><stop offset="0" stop-color="#8fc31f"/><stop offset="0.14" stop-color="#89c121"/><stop offset="0.31" stop-color="#79bb27"/><stop offset="0.52" stop-color="#5eb030"/><stop offset="0.73" stop-color="#38a23d"/><stop offset="0.96" stop-color="#08904d"/><stop offset="1" stop-color="#008d50"/></linearGradient></defs><g id="레이어_2" data-name="레이어 2"><g id="Layer_1" data-name="Layer 1"><path class="cls-1" d="M28.78,14.48A10.52,10.52,0,0,0,25,12.25a9.89,9.89,0,0,0-3-.65c-.9,0-1.67.29-1.87,1.19-.37,1.72-.2,16.49-.07,18.19.1,1.26.63,2,2.1,2C32.43,32.78,35.12,20.33,28.78,14.48Z"/><path class="cls-2" d="M40.54,2.62a9.7,9.7,0,0,0-3.39-2A9.08,9.08,0,0,0,34.39,0c-.83,0-1.52.27-1.71,1.08-.33,1.56-.17,15,0,16.53a1.65,1.65,0,0,0,1.9,1.78C43.86,19.23,46.31,7.93,40.54,2.62Z"/><path class="cls-3" d="M44.66,15.08a12.07,12.07,0,0,0-4.27-2.54,11.25,11.25,0,0,0-3.46-.74c-1,0-1.92.32-2.14,1.35-.44,2-.23,18.81-.08,20.77.12,1.43.71,2.26,2.39,2.24C48.82,36,51.9,21.76,44.66,15.08Z"/><path class="cls-4" d="M5,40.84H0V54.49H5c4.13,0,7.12-2.86,7.12-6.8,0-4.1-2.86-6.85-7.12-6.85M9.7,47.68A4.46,4.46,0,0,1,4.93,52.4H2.41V42.93H4.93A4.39,4.39,0,0,1,9.7,47.68Z"/><path class="cls-4" d="M21.85,47.43a3.81,3.81,0,0,0,1.47-3.09c0-2.19-1.76-3.5-4.71-3.5H13.2V54.49h5.51C22,54.49,24,53,24,50.59a3.28,3.28,0,0,0-2.18-3.16m-4.14-1a.93.93,0,0,0-.78.79,1.22,1.22,0,0,0,.19.88.84.84,0,0,0,.56.36,10.07,10.07,0,0,0,1,.08c1.07,0,2.21.1,2.72,1a1.82,1.82,0,0,1-.11,1.83,2.76,2.76,0,0,1-2.23,1H15.61V42.93h2.76c1.82,0,2.55.53,2.55,1.63a1.8,1.8,0,0,1-.69,1.5,2.85,2.85,0,0,1-1.6.32A4.17,4.17,0,0,0,17.71,46.45Z"/><path class="cls-4" d="M36.71,44.69H35.32V40.84H33.17V41a.68.68,0,0,0,.42.68V53.48a.85.85,0,0,0,.24.61.82.82,0,0,0,.62.26.8.8,0,0,0,.61-.26.83.83,0,0,0,.26-.61V46.29h1.39v7.18a.89.89,0,0,0,.26.62.9.9,0,0,0,.64.26.87.87,0,0,0,.62-.26.89.89,0,0,0,.26-.62V40.84H36.71Zm-10.09-3a.8.8,0,0,0-.22.56.77.77,0,0,0,.22.53.75.75,0,0,0,.55.23h3.29a8.86,8.86,0,0,1-.37,2H27a.73.73,0,0,0-.53.22.7.7,0,0,0-.23.52.71.71,0,0,0,.23.52.74.74,0,0,0,.53.23h2.4a.25.25,0,0,0,0,.07,9.1,9.1,0,0,1-3,2.74.69.69,0,0,0-.33.51.84.84,0,0,0,.11.56.69.69,0,0,0,.45.33.92.92,0,0,0,.65-.1,10.17,10.17,0,0,0,3.88-3.66,10.34,10.34,0,0,0,1.2-5.45H27.17A.75.75,0,0,0,26.62,41.69ZM49.2,48.61H48V43h.88a.76.76,0,0,0,.52-.22.75.75,0,0,0-.52-1.28H41.48a.71.71,0,0,0-.53.22.73.73,0,0,0,0,1.06.75.75,0,0,0,.53.22h.9v5.65H41.17a.74.74,0,0,0-.52,1.27.73.73,0,0,0,.52.21h8a.74.74,0,0,0,.53-.21.74.74,0,0,0,0-1.05A.71.71,0,0,0,49.2,48.61Zm-2.91,0H44.11V43h2.18ZM50.44,41a.68.68,0,0,0,.42.68V53.45a.89.89,0,0,0,1.53.63.89.89,0,0,0,.26-.63V40.84H50.44Zm17.81,2.87a.73.73,0,0,0-.52-.21H66.29V40.84H64.07V41a.68.68,0,0,0,.41.68v5.45a.81.81,0,0,0,.27.63.88.88,0,0,0,1.27,0,.85.85,0,0,0,.27-.63v-2h1.44a.72.72,0,0,0,.73-.72A.74.74,0,0,0,68.25,43.88ZM61.94,47.6a.65.65,0,0,0,.66-.66.67.67,0,0,0-.66-.69H58a.42.42,0,0,1-.48-.47v-.7h4.13a.65.65,0,0,0,.66-.67.66.66,0,0,0-.18-.48.64.64,0,0,0-.48-.2H57.5v-1.1h4.25a.65.65,0,0,0,.68-.68.68.68,0,0,0-.19-.48.66.66,0,0,0-.49-.2H55.34v.16a.67.67,0,0,0,.41.68V46c0,1.06.58,1.59,1.75,1.59Zm4,5.22h-6.7c-.23,0-.34-.11-.34-.33V52h7.37V48.45H57.65a.68.68,0,0,0-.68.68.7.7,0,0,0,.68.69h6.84v.81H57.12v2c0,1.06.59,1.6,1.75,1.6H66a.63.63,0,0,0,.48-.21.62.62,0,0,0,.2-.48.64.64,0,0,0-.2-.49A.62.62,0,0,0,66,52.82Z"/></g></g></svg>