<svg xmlns="http://www.w3.org/2000/svg" xmlns:xlink="http://www.w3.org/1999/xlink" viewBox="0 0 99.75 31.49"><defs><style>.cls-1{fill:url(#linear-gradient);}.cls-2{fill:url(#linear-gradient-2);}.cls-3{fill:url(#linear-gradient-3);}.cls-4{fill:#007f41;}</style><linearGradient id="linear-gradient" x1="489.68" y1="335.25" x2="489.88" y2="335.25" gradientTransform="matrix(-55.21, -0.53, -0.53, 55.21, 27220.51, -18230.64)" gradientUnits="userSpaceOnUse"><stop offset="0.1" stop-color="#ee7800"/><stop offset="0.25" stop-color="#ec7202"/><stop offset="0.46" stop-color="#e56207"/><stop offset="0.69" stop-color="#db470f"/><stop offset="0.93" stop-color="#cc211a"/><stop offset="1" stop-color="#c8161d"/></linearGradient><linearGradient id="linear-gradient-2" x1="450.6" y1="335.13" x2="450.8" y2="335.13" gradientTransform="matrix(49.41, 0.47, 0.47, -49.41, -22410.92, 16354.81)" gradientUnits="userSpaceOnUse"><stop offset="0" stop-color="#20aee5"/><stop offset="0.55" stop-color="#0f7fc4"/><stop offset="1" stop-color="#0054a7"/></linearGradient><linearGradient id="linear-gradient-3" x1="457.2" y1="335.97" x2="457.4" y2="335.97" gradientTransform="matrix(73.02, 0.7, 0.7, -73.02, -33608.76, 24236.51)" gradientUnits="userSpaceOnUse"><stop offset="0" stop-color="#8fc31f"/><stop offset="0.14" stop-color="#89c121"/><stop offset="0.31" stop-color="#79bb27"/><stop offset="0.52" stop-color="#5eb030"/><stop offset="0.73" stop-color="#38a23d"/><stop offset="0.96" stop-color="#08904d"/><stop offset="1" stop-color="#008d50"/></linearGradient></defs><g id="레이어_2" data-name="레이어 2"><g id="Layer_1" data-name="Layer 1"><path class="cls-1" d="M7.73,12.61a9.26,9.26,0,0,0-3.26-1.95,9,9,0,0,0-2.64-.56c-.79,0-1.46.25-1.63,1C-.13,12.63,0,25.5.14,27c.08,1.09.54,1.73,1.83,1.7C10.91,28.55,13.26,17.71,7.73,12.61Z"/><path class="cls-2" d="M18,2.28A8.53,8.53,0,0,0,15,.52,7.59,7.59,0,0,0,12.62,0c-.72,0-1.33.23-1.49.94-.29,1.36-.15,13-.05,14.39.08,1,.49,1.57,1.66,1.56C20.86,16.75,23,6.91,18,2.28Z"/><path class="cls-3" d="M21.57,13.13a10.72,10.72,0,0,0-3.72-2.21,9.82,9.82,0,0,0-3-.65c-.9,0-1.67.29-1.87,1.19-.38,1.7-.19,16.38-.06,18.08.1,1.25.61,2,2.08,1.95C25.18,31.33,27.87,19,21.57,13.13Z"/><path class="cls-4" d="M33.91,10.39H28.72V24.56h5.19c4.28,0,7.38-3,7.38-7.06,0-4.25-3-7.11-7.38-7.11m4.88,7.09a4.64,4.64,0,0,1-4.95,4.91H31.23V12.56h2.61A4.56,4.56,0,0,1,38.79,17.48Z"/><path class="cls-4" d="M51.39,17.23A3.94,3.94,0,0,0,52.92,14c0-2.27-1.83-3.63-4.88-3.63H42.42V24.56h5.71c3.46,0,5.53-1.52,5.53-4a3.41,3.41,0,0,0-2.27-3.28m-4.29-1a1,1,0,0,0-.81.82,1.28,1.28,0,0,0,.2.92.85.85,0,0,0,.58.36,8.39,8.39,0,0,0,1,.09c1.12.05,2.3.1,2.83,1.09a1.88,1.88,0,0,1-.12,1.9,2.87,2.87,0,0,1-2.3,1H44.92V12.56h2.86c1.89,0,2.65.54,2.65,1.69a1.87,1.87,0,0,1-.72,1.56,2.85,2.85,0,0,1-1.65.32A5.3,5.3,0,0,0,47.1,16.21Z"/><path class="cls-4" d="M66.81,14.39H65.37v-4H63.14v.18a.7.7,0,0,0,.43.7V23.51a.89.89,0,0,0,.26.63.84.84,0,0,0,.64.27.87.87,0,0,0,.64-.27.89.89,0,0,0,.26-.63V16h1.44v7.45a.88.88,0,0,0,.28.64.87.87,0,0,0,.66.28.86.86,0,0,0,.64-.28.87.87,0,0,0,.27-.64V10.39H66.81ZM56.35,11.27a.83.83,0,0,0-.23.58.79.79,0,0,0,.23.56.75.75,0,0,0,.56.23h3.42a9,9,0,0,1-.39,2H56.73a.75.75,0,0,0-.55.22.72.72,0,0,0-.24.55.75.75,0,0,0,.24.54.76.76,0,0,0,.55.23h2.49a.56.56,0,0,0,0,.08A9.36,9.36,0,0,1,56,19.14a.73.73,0,0,0-.34.53.85.85,0,0,0,.12.58.76.76,0,0,0,.46.34,1,1,0,0,0,.68-.1,10.65,10.65,0,0,0,4-3.8A10.83,10.83,0,0,0,62.22,11H56.91A.73.73,0,0,0,56.35,11.27Zm23.42,7.18H78.55V12.59h.92a.74.74,0,0,0,.53-.23.75.75,0,0,0,.24-.54.77.77,0,0,0-.24-.56.74.74,0,0,0-.53-.23H71.76a.76.76,0,0,0-.55.23.77.77,0,0,0-.24.56.75.75,0,0,0,.24.54.76.76,0,0,0,.55.23h.93v5.86H71.44a.79.79,0,0,0-.77.77.77.77,0,0,0,.77.77h8.33a.74.74,0,0,0,.55-.22.75.75,0,0,0,.22-.55.76.76,0,0,0-.22-.54A.75.75,0,0,0,79.77,18.45Zm-3,0H74.49V12.59h2.26Zm4.31-7.88a.7.7,0,0,0,.43.7V23.48a.9.9,0,0,0,.28.65.92.92,0,0,0,.65.28.91.91,0,0,0,.66-.28.92.92,0,0,0,.27-.65V10.39H81.06Zm18.47,3a.7.7,0,0,0-.54-.22H97.5V10.39H95.2v.18a.7.7,0,0,0,.42.7v5.65a.87.87,0,0,0,.28.66.91.91,0,0,0,.67.28.9.9,0,0,0,.65-.28.87.87,0,0,0,.28-.66V14.84H99a.71.71,0,0,0,.54-.23.75.75,0,0,0,.22-.53A.73.73,0,0,0,99.53,13.55ZM93,17.41A.7.7,0,1,0,93,16H88.88a.44.44,0,0,1-.5-.5v-.72h4.29a.65.65,0,0,0,.49-.2.68.68,0,0,0,.2-.49.73.73,0,0,0-.2-.51.65.65,0,0,0-.49-.2H88.38V12.25h4.41a.66.66,0,0,0,.51-.2.69.69,0,0,0,.2-.5.7.7,0,0,0-.2-.5.66.66,0,0,0-.51-.21H86.15V11a.69.69,0,0,0,.42.71v4c0,1.11.6,1.66,1.81,1.66Zm4.17,5.41h-7c-.24,0-.35-.11-.35-.34V22H97.5V18.29h-9a.69.69,0,0,0-.5.21.69.69,0,0,0,0,1,.69.69,0,0,0,.5.21h7.1v.85H88v2c0,1.11.6,1.66,1.81,1.66h7.35a.72.72,0,0,0,0-1.43Z"/></g></g></svg>