<svg xmlns="http://www.w3.org/2000/svg" xmlns:xlink="http://www.w3.org/1999/xlink" viewBox="0 0 85.35 31.49"><defs><style>.cls-1{fill:url(#linear-gradient);}.cls-2{fill:url(#linear-gradient-2);}.cls-3{fill:url(#linear-gradient-3);}.cls-4{fill:#007f41;}</style><linearGradient id="linear-gradient" x1="489.65" y1="192.62" x2="489.86" y2="192.62" gradientTransform="matrix(-55.21, -0.53, -0.53, 55.21, 27144.06, -10356.58)" gradientUnits="userSpaceOnUse"><stop offset="0.1" stop-color="#ee7800"/><stop offset="0.25" stop-color="#ec7202"/><stop offset="0.46" stop-color="#e56207"/><stop offset="0.69" stop-color="#db470f"/><stop offset="0.93" stop-color="#cc211a"/><stop offset="1" stop-color="#c8161d"/></linearGradient><linearGradient id="linear-gradient-2" x1="450.63" y1="186.93" x2="450.83" y2="186.93" gradientTransform="matrix(49.41, 0.47, 0.47, -49.41, -22342.5, 9032.18)" gradientUnits="userSpaceOnUse"><stop offset="0" stop-color="#20aee5"/><stop offset="0.55" stop-color="#0f7fc4"/><stop offset="1" stop-color="#0054a7"/></linearGradient><linearGradient id="linear-gradient-3" x1="457.22" y1="188.72" x2="457.42" y2="188.72" gradientTransform="matrix(73.02, 0.7, 0.7, -73.02, -33507.63, 13483.74)" gradientUnits="userSpaceOnUse"><stop offset="0" stop-color="#8fc31f"/><stop offset="0.14" stop-color="#89c121"/><stop offset="0.31" stop-color="#79bb27"/><stop offset="0.52" stop-color="#5eb030"/><stop offset="0.73" stop-color="#38a23d"/><stop offset="0.96" stop-color="#08904d"/><stop offset="1" stop-color="#008d50"/></linearGradient></defs><g id="레이어_2" data-name="레이어 2"><g id="Layer_1" data-name="Layer 1"><path class="cls-1" d="M7.73,12.61a9.26,9.26,0,0,0-3.26-1.95,9,9,0,0,0-2.64-.56c-.79,0-1.46.25-1.63,1C-.13,12.63,0,25.5.14,27,.22,28.08.68,28.72,2,28.7,10.91,28.55,13.26,17.71,7.73,12.61Z"/><path class="cls-2" d="M18,2.28A8.44,8.44,0,0,0,15,.52,7.59,7.59,0,0,0,12.62,0c-.72,0-1.33.23-1.49,1-.29,1.35-.15,13-.05,14.39.08,1,.49,1.57,1.66,1.55C20.86,16.75,23,6.91,18,2.28Z"/><path class="cls-3" d="M21.57,13.14a10.59,10.59,0,0,0-3.72-2.22,10.13,10.13,0,0,0-3-.64c-.9,0-1.67.28-1.87,1.18-.38,1.71-.2,16.38-.06,18.08.1,1.25.61,2,2.08,1.95C25.18,31.33,27.87,19,21.57,13.14Z"/><path class="cls-4" d="M58.39,10.6v.27a.78.78,0,0,0,.63.79V23.34a.75.75,0,0,0-.58.76v.21h3.25V24.1a.75.75,0,0,0-.58-.76v-5H66.4a.9.9,0,0,0,.67-.27.85.85,0,0,0,.27-.64.9.9,0,0,0-.27-.66.94.94,0,0,0-.67-.26H61.11V12.46h5.47a.72.72,0,0,0,.74.53h.19V10.6H58.39Z"/><path class="cls-4" d="M70.67,10.6h-.58v.2a.76.76,0,0,0,.58.77V23.34a.76.76,0,0,0-.58.76v.21h3.25V24.1a.75.75,0,0,0-.58-.76V11.57a.75.75,0,0,0,.58-.77v-.2H70.67Z"/><path class="cls-4" d="M33.93,10.39H28.76V24.53h5.17c4.27,0,7.36-3,7.36-7,0-4.25-3-7.1-7.36-7.1m4.87,7.08a4.63,4.63,0,0,1-4.94,4.89H31.25v-9.8h2.61a4.56,4.56,0,0,1,4.94,4.91"/><path class="cls-4" d="M51.36,17.21A3.9,3.9,0,0,0,52.89,14c0-2.27-1.82-3.63-4.87-3.63H42.41V24.52h5.71c3.44,0,5.5-1.5,5.5-4a3.39,3.39,0,0,0-2.26-3.28m-4.27-1a1,1,0,0,0-.81.82,1.26,1.26,0,0,0,.2.93.9.9,0,0,0,.57.36,8.48,8.48,0,0,0,1.06.08c1.11.05,2.29.11,2.81,1.09a1.88,1.88,0,0,1-.11,1.9,2.88,2.88,0,0,1-2.3,1h-3.6v-9.8h2.85c1.88,0,2.63.54,2.63,1.69a1.84,1.84,0,0,1-.71,1.55,2.85,2.85,0,0,1-1.65.32,5.15,5.15,0,0,0-.94.07"/><path class="cls-4" d="M84.66,14.54h-.18a.77.77,0,0,1-.61-.26.7.7,0,0,1-.25-.53,4.74,4.74,0,0,0-3.13-1.45,2.84,2.84,0,0,0-1.75.49,1.56,1.56,0,0,0-.66,1.31c0,.83.9,1.55,2.69,2.16.33.11.67.23,1,.37a7,7,0,0,1,2.67,1.63,3.26,3.26,0,0,1,.89,2.31A3.59,3.59,0,0,1,84,23.39a5.12,5.12,0,0,1-3.46,1.17,5.7,5.7,0,0,1-3.24-.86,4.8,4.8,0,0,1-1.75-2,.93.93,0,0,1-.1-.45.9.9,0,0,1,.28-.66.92.92,0,0,1,.66-.28,1,1,0,0,1,.68.27,1.25,1.25,0,0,1,.16.24A4.7,4.7,0,0,0,78.34,22a3.8,3.8,0,0,0,2.13.67,3.31,3.31,0,0,0,2-.57,1.77,1.77,0,0,0,.78-1.47,1.49,1.49,0,0,0-.79-1.31,9.55,9.55,0,0,0-1.72-.87l-1.88-.72a5,5,0,0,1-2.26-1.5,3.2,3.2,0,0,1-.67-2,3.45,3.45,0,0,1,1.34-2.73,4.91,4.91,0,0,1,3.26-1.12A5,5,0,0,1,84,11.61a.61.61,0,0,1,.54-.27h.17Z"/></g></g></svg>