<svg xmlns="http://www.w3.org/2000/svg" xmlns:xlink="http://www.w3.org/1999/xlink" viewBox="0 0 54.5 54.45"><defs><style>.cls-1{fill:url(#linear-gradient);}.cls-2{fill:url(#linear-gradient-2);}.cls-3{fill:url(#linear-gradient-3);}.cls-4{fill:#007f41;}</style><linearGradient id="linear-gradient" x1="115.19" y1="146.25" x2="115.42" y2="146.25" gradientTransform="matrix(-55.21, -0.53, -0.53, 55.21, 6460.44, -7990.83)" gradientUnits="userSpaceOnUse"><stop offset="0.1" stop-color="#ee7800"/><stop offset="0.25" stop-color="#ec7202"/><stop offset="0.46" stop-color="#e56207"/><stop offset="0.69" stop-color="#db470f"/><stop offset="0.93" stop-color="#cc211a"/><stop offset="1" stop-color="#c8161d"/></linearGradient><linearGradient id="linear-gradient-2" x1="90.79" y1="138.81" x2="91.02" y2="138.81" gradientTransform="matrix(49.41, 0.47, 0.47, -49.41, -4526.99, 6825.33)" gradientUnits="userSpaceOnUse"><stop offset="0" stop-color="#20aee5"/><stop offset="0.55" stop-color="#0f7fc4"/><stop offset="1" stop-color="#0054a7"/></linearGradient><linearGradient id="linear-gradient-3" x1="94.89" y1="140.87" x2="95.12" y2="140.87" gradientTransform="matrix(73.02, 0.7, 0.7, -73.02, -7002.28, 10244.82)" gradientUnits="userSpaceOnUse"><stop offset="0" stop-color="#8fc31f"/><stop offset="0.14" stop-color="#89c121"/><stop offset="0.31" stop-color="#79bb27"/><stop offset="0.52" stop-color="#5eb030"/><stop offset="0.73" stop-color="#38a23d"/><stop offset="0.96" stop-color="#08904d"/><stop offset="1" stop-color="#008d50"/></linearGradient></defs><g id="레이어_2" data-name="레이어 2"><g id="Layer_1" data-name="Layer 1"><path class="cls-1" d="M20.8,14.44a10.61,10.61,0,0,0-3.73-2.22,9.82,9.82,0,0,0-3-.65c-.9,0-1.67.29-1.86,1.19-.38,1.71-.21,16.44-.07,18.15.09,1.25.62,2,2.09,2C24.45,32.7,27.13,20.28,20.8,14.44Z"/><path class="cls-2" d="M32.54,2.61a9.68,9.68,0,0,0-3.39-2A9,9,0,0,0,26.4,0c-.82,0-1.52.27-1.7,1.08-.34,1.55-.18,14.93-.06,16.48.09,1.14.57,1.8,1.9,1.78C35.84,19.18,38.28,7.91,32.54,2.61Z"/><path class="cls-3" d="M36.65,15a12.24,12.24,0,0,0-4.26-2.53,11.18,11.18,0,0,0-3.45-.74c-1,0-1.92.32-2.15,1.35-.43,2-.22,18.76-.07,20.71.12,1.44.71,2.26,2.38,2.24C40.79,35.88,43.87,21.71,36.65,15Z"/><path class="cls-4" d="M28.54,41v.26a.75.75,0,0,0,.6.76V53.27a.72.72,0,0,0-.55.73v.21h3.13V54a.73.73,0,0,0-.56-.73V48.46h5.09a.9.9,0,0,0,.65-.25.85.85,0,0,0,.26-.62A.88.88,0,0,0,36.9,47a.9.9,0,0,0-.65-.25H31.16V42.8h5.27a.69.69,0,0,0,.71.5h.18V41H28.54Z"/><path class="cls-4" d="M40.36,41h-.55v.19a.73.73,0,0,0,.55.75V53.27a.72.72,0,0,0-.55.73v.21h3.13V54a.73.73,0,0,0-.56-.73V41.94a.74.74,0,0,0,.56-.75V41H40.36Z"/><path class="cls-4" d="M5,40.8H0V54.41H5c4.11,0,7.09-2.85,7.09-6.77,0-4.09-2.85-6.84-7.09-6.84m4.69,6.82a4.45,4.45,0,0,1-4.76,4.71H2.4V42.89H4.91a4.38,4.38,0,0,1,4.76,4.73"/><path class="cls-4" d="M21.77,47.37a3.75,3.75,0,0,0,1.47-3.07c0-2.19-1.75-3.5-4.69-3.5h-5.4V54.41h5.49C22,54.41,24,53,24,50.53a3.27,3.27,0,0,0-2.18-3.16m-4.12-1a.93.93,0,0,0-.77.79,1.21,1.21,0,0,0,.19.89.79.79,0,0,0,.55.34,7.74,7.74,0,0,0,1,.09c1.06,0,2.2.1,2.71,1a1.8,1.8,0,0,1-.12,1.83,2.76,2.76,0,0,1-2.21,1H15.55V42.89H18.3c1.81,0,2.53.52,2.53,1.62a1.76,1.76,0,0,1-.68,1.5,2.73,2.73,0,0,1-1.59.31,4.9,4.9,0,0,0-.91.07"/><path class="cls-4" d="M53.84,44.8h-.18a.76.76,0,0,1-.59-.26.67.67,0,0,1-.23-.51,4.59,4.59,0,0,0-3-1.39,2.77,2.77,0,0,0-1.68.47,1.49,1.49,0,0,0-.64,1.26c0,.8.87,1.5,2.59,2.08.32.1.64.22,1,.36a7,7,0,0,1,2.58,1.57,3.12,3.12,0,0,1,.85,2.23,3.46,3.46,0,0,1-1.33,2.71,5,5,0,0,1-3.33,1.13,5.52,5.52,0,0,1-3.13-.83A4.71,4.71,0,0,1,45,51.67a.88.88,0,0,1-.1-.43.92.92,0,0,1,.91-.9.93.93,0,0,1,.65.25,1.43,1.43,0,0,1,.16.24,4.19,4.19,0,0,0,1.11,1.11,3.67,3.67,0,0,0,2,.65A3.18,3.18,0,0,0,51.69,52a1.69,1.69,0,0,0,.75-1.41,1.44,1.44,0,0,0-.76-1.26A9.09,9.09,0,0,0,50,48.53l-1.81-.7A4.65,4.65,0,0,1,46,46.38a3.08,3.08,0,0,1-.65-1.87,3.28,3.28,0,0,1,1.3-2.63,4.71,4.71,0,0,1,3.13-1.08A4.83,4.83,0,0,1,53.15,42a.6.6,0,0,1,.53-.25h.16Z"/></g></g></svg>