<svg xmlns="http://www.w3.org/2000/svg" xmlns:xlink="http://www.w3.org/1999/xlink" viewBox="0 0 98.74 31.49"><defs><style>.cls-1{fill:url(#linear-gradient);}.cls-2{fill:url(#linear-gradient-2);}.cls-3{fill:url(#linear-gradient-3);}.cls-4{fill:#007f41;}</style><linearGradient id="linear-gradient" x1="742.67" y1="263.98" x2="742.88" y2="263.98" gradientTransform="matrix(-55.21, -0.53, -0.53, 55.21, 41149.88, -14162.91)" gradientUnits="userSpaceOnUse"><stop offset="0.1" stop-color="#ee7800"/><stop offset="0.25" stop-color="#ec7202"/><stop offset="0.46" stop-color="#e56207"/><stop offset="0.69" stop-color="#db470f"/><stop offset="0.93" stop-color="#cc211a"/><stop offset="1" stop-color="#c8161d"/></linearGradient><linearGradient id="linear-gradient-2" x1="694.09" y1="260.98" x2="694.29" y2="260.98" gradientTransform="matrix(49.41, 0.47, 0.47, -49.41, -34406.89, 12576.52)" gradientUnits="userSpaceOnUse"><stop offset="0" stop-color="#20aee5"/><stop offset="0.55" stop-color="#0f7fc4"/><stop offset="1" stop-color="#0054a7"/></linearGradient><linearGradient id="linear-gradient-3" x1="702.32" y1="262.32" x2="702.52" y2="262.32" gradientTransform="matrix(73.02, 0.7, 0.7, -73.02, -51456.5, 18687.23)" gradientUnits="userSpaceOnUse"><stop offset="0" stop-color="#8fc31f"/><stop offset="0.14" stop-color="#89c121"/><stop offset="0.31" stop-color="#79bb27"/><stop offset="0.52" stop-color="#5eb030"/><stop offset="0.73" stop-color="#38a23d"/><stop offset="0.96" stop-color="#08904d"/><stop offset="1" stop-color="#008d50"/></linearGradient></defs><g id="레이어_2" data-name="레이어 2"><g id="Layer_1" data-name="Layer 1"><path class="cls-1" d="M7.73,12.61a9.09,9.09,0,0,0-3.26-1.94,8.72,8.72,0,0,0-2.64-.57c-.79,0-1.46.25-1.63,1C-.13,12.64,0,25.5.14,27,.22,28.08.68,28.72,2,28.7,10.91,28.55,13.26,17.71,7.73,12.61Z"/><path class="cls-2" d="M18,2.28A8.44,8.44,0,0,0,15,.52,7.59,7.59,0,0,0,12.62,0c-.72,0-1.33.23-1.49.94-.29,1.36-.15,13-.05,14.4.08,1,.49,1.56,1.66,1.55C20.86,16.75,23,6.91,18,2.28Z"/><path class="cls-3" d="M21.57,13.13a10.72,10.72,0,0,0-3.72-2.21,9.83,9.83,0,0,0-3-.64c-.9,0-1.67.28-1.87,1.18-.37,1.7-.19,16.38-.06,18.08.1,1.26.61,2,2.08,1.95C25.19,31.33,27.87,19,21.57,13.13Z"/><path class="cls-4" d="M33.91,10.4H28.73V24.57h5.18c4.28,0,7.38-3,7.38-7.06,0-4.25-3-7.11-7.38-7.11m4.88,7.1a4.64,4.64,0,0,1-4.95,4.9H31.23V12.57h2.61A4.56,4.56,0,0,1,38.79,17.5Z"/><path class="cls-4" d="M51.39,17.24A3.9,3.9,0,0,0,52.92,14c0-2.28-1.82-3.64-4.88-3.64H42.42V24.57h5.72c3.45,0,5.52-1.51,5.52-4.05a3.4,3.4,0,0,0-2.27-3.28m-4.29-1a1,1,0,0,0-.8.82,1.22,1.22,0,0,0,.19.92.87.87,0,0,0,.58.36,6.87,6.87,0,0,0,1.06.09c1.11.05,2.29.1,2.82,1.09a1.88,1.88,0,0,1-.12,1.9,2.87,2.87,0,0,1-2.3,1H44.92V12.57h2.85c1.89,0,2.65.55,2.65,1.69a1.86,1.86,0,0,1-.72,1.56,2.94,2.94,0,0,1-1.65.33A4.48,4.48,0,0,0,47.1,16.22Z"/><path class="cls-4" d="M64.15,11.67H61.34V10.29h-2v1.38H56.41a.8.8,0,0,0-.78.78.76.76,0,0,0,.24.56.78.78,0,0,0,.54.23h.79a3.47,3.47,0,0,0-.65,1,3.54,3.54,0,0,0-.31,1.48,3.59,3.59,0,0,0,.31,1.49,4.07,4.07,0,0,0,2.16,2,4.44,4.44,0,0,0,1.59.29,4.39,4.39,0,0,0,1.58-.29,3.74,3.74,0,0,0,1.29-.82,3.63,3.63,0,0,0,.88-1.21,3.59,3.59,0,0,0,.31-1.49,3.54,3.54,0,0,0-.31-1.48,3.69,3.69,0,0,0-.65-1h.75a.79.79,0,0,0,.79-.79.76.76,0,0,0-.23-.55A.75.75,0,0,0,64.15,11.67Zm-1.83,4.88a2.85,2.85,0,0,1-.46.75,2.06,2.06,0,0,1-.7.49,2.06,2.06,0,0,1-1.73,0,2.16,2.16,0,0,1-.7-.49,2.41,2.41,0,0,1-.46-.75,2.47,2.47,0,0,1,0-1.8,2.25,2.25,0,0,1,.46-.74,2.19,2.19,0,0,1,.7-.5,2.29,2.29,0,0,1,.87-.18,2.32,2.32,0,0,1,.86.18,2.08,2.08,0,0,1,.7.5,2.64,2.64,0,0,1,.46.74,2.34,2.34,0,0,1,0,1.8Zm6.76-1.85H67.72V10.38H65.41v.18a.71.71,0,0,0,.43.71v12.2a.88.88,0,0,0,.28.65.9.9,0,0,0,.65.28.91.91,0,0,0,.67-.28.92.92,0,0,0,.28-.65v-7.1h1.36a.79.79,0,0,0,.59-.25.81.81,0,0,0,.25-.58.84.84,0,0,0-.84-.84Zm12-4.14a.72.72,0,0,0,.43.71v12.2a.89.89,0,0,0,.29.65.89.89,0,0,0,1.3,0,.88.88,0,0,0,.28-.65V10.38h-2.3Zm-2.6,1.81a4.32,4.32,0,0,0-1.36-.86,4.68,4.68,0,0,0-3.35,0,4.41,4.41,0,0,0-1.38.86,4.36,4.36,0,0,0-.91,1.3,3.91,3.91,0,0,0-.34,1.59,3.87,3.87,0,0,0,.34,1.58,4.36,4.36,0,0,0,.91,1.3,4.08,4.08,0,0,0,1.38.86,4.68,4.68,0,0,0,3.35,0,4,4,0,0,0,1.36-.86,4.09,4.09,0,0,0,.93-1.3,3.71,3.71,0,0,0,.34-1.58,3.76,3.76,0,0,0-.34-1.59A4.09,4.09,0,0,0,78.46,12.37Zm-.78,3.86a2.32,2.32,0,0,1-.52.78,2.36,2.36,0,0,1-.78.55,2.5,2.5,0,0,1-1.91,0,2.55,2.55,0,0,1-1.31-1.33,2.4,2.4,0,0,1-.19-1,2.45,2.45,0,0,1,.19-1A2.55,2.55,0,0,1,74.47,13a2.5,2.5,0,0,1,1.91,0,2.36,2.36,0,0,1,.78.55,2.32,2.32,0,0,1,.52.78,2.63,2.63,0,0,1,.19,1A2.58,2.58,0,0,1,77.68,16.23ZM93,15.36H94v2.81a.83.83,0,0,0,.27.63.89.89,0,0,0,1.28,0,.83.83,0,0,0,.27-.63V10.38H93.6v.18a.72.72,0,0,0,.43.71v2.48H93a.75.75,0,0,0-.57.24.83.83,0,0,0-.23.58.79.79,0,0,0,.23.56A.78.78,0,0,0,93,15.36Zm3.93-5v7.77a.88.88,0,0,0,.28.65.9.9,0,0,0,.66.27.89.89,0,0,0,.64-.27.91.91,0,0,0,.27-.65V10.38Zm-7.43,9.24H89.4a.73.73,0,0,0-.55.25.75.75,0,0,0-.24.54.74.74,0,0,0,.24.55.75.75,0,0,0,.55.24h7.49v2.46a.87.87,0,0,0,.28.64.9.9,0,0,0,.66.27.89.89,0,0,0,.64-.27.9.9,0,0,0,.27-.64v-4H89.46Zm2.82-1.42a.75.75,0,0,0,.23-.55.78.78,0,0,0-.23-.54.75.75,0,0,0-.54-.24H88.62a.44.44,0,0,1-.49-.5v-1h2.71a.76.76,0,0,0,.55-.23.7.7,0,0,0,.22-.52.78.78,0,0,0-.22-.56.76.76,0,0,0-.55-.23H88.13V12.44h3.11a.76.76,0,0,0,.54-.23.7.7,0,0,0,.23-.54.74.74,0,0,0-.23-.55.73.73,0,0,0-.54-.24H86V11a.69.69,0,0,0,.43.71v5c0,1.09.61,1.64,1.82,1.64h3.53A.78.78,0,0,0,92.28,18.2Z"/></g></g></svg>