<svg xmlns="http://www.w3.org/2000/svg" xmlns:xlink="http://www.w3.org/1999/xlink" viewBox="0 0 67.48 54.48"><defs><style>.cls-1{fill:url(#linear-gradient);}.cls-2{fill:url(#linear-gradient-2);}.cls-3{fill:url(#linear-gradient-3);}.cls-4{fill:#007f41;}</style><linearGradient id="linear-gradient" x1="123.46" y1="271.41" x2="123.69" y2="271.41" gradientTransform="matrix(-55.21, -0.53, -0.53, 55.21, 6990.26, -14896.26)" gradientUnits="userSpaceOnUse"><stop offset="0.1" stop-color="#ee7800"/><stop offset="0.25" stop-color="#ec7202"/><stop offset="0.46" stop-color="#e56207"/><stop offset="0.69" stop-color="#db470f"/><stop offset="0.93" stop-color="#cc211a"/><stop offset="1" stop-color="#c8161d"/></linearGradient><linearGradient id="linear-gradient-2" x1="98.99" y1="268.86" x2="99.22" y2="268.86" gradientTransform="matrix(49.41, 0.47, 0.47, -49.41, -4985.58, 13247.31)" gradientUnits="userSpaceOnUse"><stop offset="0" stop-color="#20aee5"/><stop offset="1" stop-color="#0054a7"/></linearGradient><linearGradient id="linear-gradient-3" x1="103.1" y1="270.09" x2="103.33" y2="270.09" gradientTransform="matrix(73.02, 0.7, 0.7, -73.02, -7683.99, 19675.01)" gradientUnits="userSpaceOnUse"><stop offset="0" stop-color="#8fc31f"/><stop offset="0.14" stop-color="#89c121"/><stop offset="0.31" stop-color="#79bb27"/><stop offset="0.52" stop-color="#5eb030"/><stop offset="0.73" stop-color="#38a23d"/><stop offset="0.96" stop-color="#08904d"/><stop offset="1" stop-color="#008d50"/></linearGradient></defs><g id="레이어_2" data-name="레이어 2"><g id="Layer_1" data-name="Layer 1"><path class="cls-1" d="M28.3,14.47a10.79,10.79,0,0,0-3.75-2.22,9.82,9.82,0,0,0-3-.65c-.91,0-1.68.28-1.88,1.19-.37,1.72-.2,16.49-.06,18.19.09,1.26.62,2,2.1,2C31.94,32.78,34.64,20.33,28.3,14.47Z"/><path class="cls-2" d="M40.06,2.61a9.72,9.72,0,0,0-3.4-2A9.08,9.08,0,0,0,33.9,0c-.82,0-1.52.27-1.7,1.08-.34,1.56-.18,15-.06,16.53.09,1.13.57,1.8,1.9,1.78C43.37,19.23,45.82,7.93,40.06,2.61Z"/><path class="cls-3" d="M44.18,15.08a12.25,12.25,0,0,0-4.27-2.54,11.25,11.25,0,0,0-3.47-.74c-1,0-1.92.33-2.14,1.35-.43,2-.22,18.81-.08,20.77.12,1.43.71,2.26,2.39,2.23C48.33,36,51.41,21.76,44.18,15.08Z"/><path class="cls-4" d="M5,40.83H0V54.48H5c4.12,0,7.11-2.86,7.11-6.8,0-4.1-2.86-6.85-7.11-6.85m4.71,6.83a4.47,4.47,0,0,1-4.78,4.73H2.41V42.92H4.93A4.41,4.41,0,0,1,9.71,47.66Z"/><path class="cls-4" d="M21.85,47.42a3.79,3.79,0,0,0,1.47-3.09c0-2.19-1.76-3.5-4.71-3.5H13.2V54.48h5.51C22,54.48,24,53,24,50.58a3.26,3.26,0,0,0-2.18-3.16m-4.14-1a1,1,0,0,0-.78.79,1.23,1.23,0,0,0,.19.89.86.86,0,0,0,.56.36c.31.05.66.06,1,.08,1.08.05,2.21.1,2.72,1.05a1.8,1.8,0,0,1-.11,1.83,2.78,2.78,0,0,1-2.22,1H15.61V42.92h2.76c1.82,0,2.55.52,2.55,1.63a1.8,1.8,0,0,1-.69,1.5,2.83,2.83,0,0,1-1.59.32A4.9,4.9,0,0,0,17.71,46.43Z"/><path class="cls-4" d="M34.14,42.05h-2.7V40.72h-2v1.33h-2.8a.73.73,0,0,0-.53.22.74.74,0,0,0,0,1.07.73.73,0,0,0,.53.22h.76a3.53,3.53,0,0,0,.21,5,3.52,3.52,0,0,0,1.24.79,4.47,4.47,0,0,0,3.06,0,3.81,3.81,0,0,0,1.24-.79A3.51,3.51,0,0,0,34.34,46a3.46,3.46,0,0,0-.3-1.43,3.07,3.07,0,0,0-.63-1h.73a.76.76,0,1,0,0-1.51Zm-1.76,4.7a2.62,2.62,0,0,1-.45.73,2,2,0,0,1-.67.47,2,2,0,0,1-.83.18A1.9,1.9,0,0,1,29.6,48a2.18,2.18,0,0,1-.68-.47,2.62,2.62,0,0,1-.45-.73,2.42,2.42,0,0,1,0-1.73,2.43,2.43,0,0,1,.45-.72,2,2,0,0,1,.68-.47,1.9,1.9,0,0,1,.83-.17,2,2,0,0,1,.83.17,1.89,1.89,0,0,1,.67.47,2.43,2.43,0,0,1,.45.72,2.29,2.29,0,0,1,0,1.73ZM38.9,45H37.58V40.81H35.35V41a.68.68,0,0,0,.42.68V53.42a.91.91,0,0,0,1.81,0V46.58H38.9a.82.82,0,0,0,.8-.8.78.78,0,0,0-.24-.58A.8.8,0,0,0,38.9,45Zm11.54-4a.68.68,0,0,0,.42.68V53.42a.92.92,0,0,0,.9.9.85.85,0,0,0,.63-.27.86.86,0,0,0,.27-.63V40.81H50.44Zm-2.51,1.75a4,4,0,0,0-1.31-.83A4.31,4.31,0,0,0,45,41.6a4.4,4.4,0,0,0-1.62.3A3.92,3.92,0,0,0,41.19,44a3.63,3.63,0,0,0-.33,1.53A3.58,3.58,0,0,0,41.19,47a4,4,0,0,0,2.2,2.09,4.61,4.61,0,0,0,1.62.29,4.51,4.51,0,0,0,1.61-.29,3.88,3.88,0,0,0,1.31-.84,3.7,3.7,0,0,0,.9-1.25,3.58,3.58,0,0,0,.33-1.52A3.63,3.63,0,0,0,48.83,44,3.8,3.8,0,0,0,47.93,42.73Zm-.75,3.71a2.28,2.28,0,0,1-.5.76,2.22,2.22,0,0,1-.75.53,2.44,2.44,0,0,1-1.84,0,2.52,2.52,0,0,1-.77-.53,2.61,2.61,0,0,1-.49-.76,2.4,2.4,0,0,1,0-1.87,2.61,2.61,0,0,1,.49-.76,2.33,2.33,0,0,1,.77-.52,2.32,2.32,0,0,1,1.84,0,2.07,2.07,0,0,1,.75.52,2.28,2.28,0,0,1,.5.76,2.52,2.52,0,0,1,0,1.87Zm14.73-.83h1v2.7a.86.86,0,0,0,.25.62.82.82,0,0,0,.61.25.85.85,0,0,0,.63-.25.87.87,0,0,0,.26-.62v-7.5H62.53V41a.68.68,0,0,0,.42.68v2.4h-1a.75.75,0,0,0-.55.23.78.78,0,0,0-.22.56.73.73,0,0,0,.22.53A.75.75,0,0,0,61.91,45.61Zm3.79-4.8V48.3a.87.87,0,0,0,.26.62.9.9,0,0,0,.64.26.89.89,0,0,0,.88-.88V40.81Zm-7.16,8.91h-.07a.73.73,0,0,0-.52.23A.73.73,0,0,0,58,51a.72.72,0,0,0,.52.22H65.7v2.37a.89.89,0,0,0,.9.88.83.83,0,0,0,.62-.26.85.85,0,0,0,.26-.62V49.71H58.54Zm2.71-1.37a.71.71,0,0,0,.22-.53.76.76,0,0,0-.22-.53.71.71,0,0,0-.52-.23h-3a.42.42,0,0,1-.48-.48v-1h2.62a.73.73,0,0,0,.52-.22.75.75,0,0,0-.52-1.27H57.25V42.79h3a.77.77,0,0,0,.75-.74.74.74,0,0,0-.23-.53.71.71,0,0,0-.52-.23H55.16v.15a.66.66,0,0,0,.42.68V47c0,1.06.58,1.58,1.75,1.58h3.4A.73.73,0,0,0,61.25,48.35Z"/></g></g></svg>