<svg xmlns="http://www.w3.org/2000/svg" xmlns:xlink="http://www.w3.org/1999/xlink" viewBox="0 0 111.59 31.49"><defs><style>.cls-1{fill:#007f41;}.cls-2{fill:url(#linear-gradient);}.cls-3{fill:url(#linear-gradient-2);}.cls-4{fill:url(#linear-gradient-3);}</style><linearGradient id="linear-gradient" x1="742.71" y1="477.92" x2="742.91" y2="477.92" gradientTransform="matrix(-55.21, -0.53, -0.53, 55.21, 41264.56, -25973.97)" gradientUnits="userSpaceOnUse"><stop offset="0.1" stop-color="#ee7800"/><stop offset="0.25" stop-color="#ec7202"/><stop offset="0.46" stop-color="#e56207"/><stop offset="0.69" stop-color="#db470f"/><stop offset="0.93" stop-color="#cc211a"/><stop offset="1" stop-color="#c8161d"/></linearGradient><linearGradient id="linear-gradient-2" x1="694.05" y1="483.28" x2="694.25" y2="483.28" gradientTransform="matrix(49.41, 0.47, 0.47, -49.41, -34509.5, 23560.43)" gradientUnits="userSpaceOnUse"><stop offset="0" stop-color="#20aee5"/><stop offset="0.55" stop-color="#0f7fc4"/><stop offset="1" stop-color="#0054a7"/></linearGradient><linearGradient id="linear-gradient-3" x1="702.29" y1="483.19" x2="702.49" y2="483.19" gradientTransform="matrix(73.02, 0.7, 0.7, -73.02, -51608.2, 34816.32)" gradientUnits="userSpaceOnUse"><stop offset="0" stop-color="#8fc31f"/><stop offset="0.14" stop-color="#89c121"/><stop offset="0.31" stop-color="#79bb27"/><stop offset="0.52" stop-color="#5eb030"/><stop offset="0.73" stop-color="#38a23d"/><stop offset="0.96" stop-color="#08904d"/><stop offset="1" stop-color="#008d50"/></linearGradient></defs><g id="레이어_2" data-name="레이어 2"><g id="Layer_1" data-name="Layer 1"><path class="cls-1" d="M68,17.88H63v-2H60.7V16a.71.71,0,0,0,.43.71v1.18H56.08a.79.79,0,0,0-.79.79.82.82,0,0,0,.23.58.76.76,0,0,0,.56.22H68a.76.76,0,0,0,.56-.22.82.82,0,0,0,.23-.58.79.79,0,0,0-.79-.79Z"/><path class="cls-1" d="M66.46,22.6H59.67a.42.42,0,0,1-.48-.47V20.4H56.9v.16a.67.67,0,0,0,.44.69v1.31q0,1.62,1.8,1.62h7.32A.8.8,0,0,0,67,24a.75.75,0,0,0,.25-.56.76.76,0,0,0-.25-.55A.77.77,0,0,0,66.46,22.6Z"/><path class="cls-1" d="M56.94,16.81a1.46,1.46,0,0,0,.46,0,8.11,8.11,0,0,0,1.69-.7,10.83,10.83,0,0,0,1.25-.8,6.39,6.39,0,0,0,1.73-1.75,6.39,6.39,0,0,0,1.73,1.75,12,12,0,0,0,1.26.8,8.35,8.35,0,0,0,1.69.7,1.4,1.4,0,0,0,.45,0,.68.68,0,0,0,.6-.41.75.75,0,0,0,0-.71,1,1,0,0,0-.53-.39,7.93,7.93,0,0,1-1.68-.72,8.37,8.37,0,0,1-1.22-.88A3.9,3.9,0,0,1,63,10.79V10.6H60.7v.17a.67.67,0,0,0,.07.33,1,1,0,0,0,.25.33,3.36,3.36,0,0,1-1.26,2.27,8.68,8.68,0,0,1-1.2.88,7.31,7.31,0,0,1-1.68.72,1,1,0,0,0-.54.39.81.81,0,0,0,0,.71A.69.69,0,0,0,56.94,16.81Z"/><path class="cls-1" d="M81.52,14.52H80.34V10.6H78.19v.17a.67.67,0,0,0,.44.69v12a.78.78,0,0,0,.25.59.83.83,0,0,0,1.21,0,.78.78,0,0,0,.25-.59V16.14h1.18v7.33a.87.87,0,0,0,.26.61.86.86,0,0,0,1.23,0,.87.87,0,0,0,.26-.61V10.6H81.52Z"/><path class="cls-1" d="M77.13,11.86H74.85V10.5H72.93v1.36H70.54a.75.75,0,0,0-.79.77.73.73,0,0,0,.22.54.78.78,0,0,0,.57.23h.53a4,4,0,0,0-.63,1,3.36,3.36,0,0,0-.31,1.44,3.51,3.51,0,0,0,.3,1.44,3.82,3.82,0,0,0,.82,1.2,3.69,3.69,0,0,0,1.16.8,3.58,3.58,0,0,0,1.47.3,3.43,3.43,0,0,0,1.43-.3,4,4,0,0,0,1.18-.8,4,4,0,0,0,.81-1.2,3.67,3.67,0,0,0,.29-1.44,3.36,3.36,0,0,0-.31-1.44,3.74,3.74,0,0,0-.62-1h.47a.76.76,0,0,0,.55-.23.71.71,0,0,0,.24-.54.79.79,0,0,0-.79-.77Zm-1.41,4.76a2.28,2.28,0,0,1-.43.71,2,2,0,0,1-.65.49,1.87,1.87,0,0,1-.76.17,1.94,1.94,0,0,1-.8-.17,1.8,1.8,0,0,1-.64-.49,1.92,1.92,0,0,1-.41-.71,2.48,2.48,0,0,1-.16-.86,2.53,2.53,0,0,1,.16-.87,2,2,0,0,1,.41-.7,1.9,1.9,0,0,1,1.44-.67,1.73,1.73,0,0,1,.76.18,2,2,0,0,1,.65.49,2.35,2.35,0,0,1,.43.7,2.53,2.53,0,0,1,.15.87A2.47,2.47,0,0,1,75.72,16.62Z"/><path class="cls-1" d="M97.89,20.89h-5V18.64H95c1.19,0,1.78-.54,1.78-1.61v-6H94.49v.15a.67.67,0,0,0,.41.69v1.36H89v-2.2H86.72v.15a.66.66,0,0,0,.42.69V17c0,1.07.59,1.61,1.76,1.61H91v2.25H86a.78.78,0,0,0-.56,1.34.73.73,0,0,0,.56.23H97.89a.73.73,0,0,0,.56-.23.78.78,0,0,0-.56-1.34Zm-8.43-3.81a.43.43,0,0,1-.48-.49V14.85H94.9v1.74c0,.33-.16.49-.47.49Z"/><path class="cls-1" d="M109.34,10.6v.17a.69.69,0,0,0,.43.69v2.77h-2.56a2.29,2.29,0,0,0-.1-.23,3.07,3.07,0,0,0-.67-.88h1a.7.7,0,0,0,.51-.22.67.67,0,0,0,.22-.51.7.7,0,0,0-.22-.51.68.68,0,0,0-.51-.23h-2.7V10.38h-2v1.27h-2.7a.71.71,0,0,0-.51.23.7.7,0,0,0-.22.51.67.67,0,0,0,.22.51.74.74,0,0,0,.51.22h1a3.11,3.11,0,0,0-.68.88,2.73,2.73,0,0,0-.27,1.22,3,3,0,0,0,.27,1.27,3.34,3.34,0,0,0,.8,1.05,3.67,3.67,0,0,0,1.15.69,4,4,0,0,0,1.44.25,3.89,3.89,0,0,0,1.42-.25,3.84,3.84,0,0,0,1.16-.69,3.16,3.16,0,0,0,.79-1.05,3,3,0,0,0,.23-.78h2.43v2a.92.92,0,0,0,.91.91.89.89,0,0,0,.65-.27.86.86,0,0,0,.26-.64V10.6Zm-4.28,5.88a1.76,1.76,0,0,1-1.32.52,1.78,1.78,0,0,1-1.33-.52,1.75,1.75,0,0,1-.52-1.27,1.68,1.68,0,0,1,.52-1.26,1.78,1.78,0,0,1,1.33-.52,1.76,1.76,0,0,1,1.32.52,1.71,1.71,0,0,1,.51,1.26A1.78,1.78,0,0,1,105.06,16.48Z"/><path class="cls-1" d="M101.84,19.33a.66.66,0,0,0,.42.69V22.6c0,1.08.6,1.62,1.78,1.62h5.79c1.18,0,1.76-.54,1.76-1.62V19.17h-9.75Zm2.25,1.32h5.7v1.6c0,.32-.17.47-.51.47h-4.69c-.33,0-.5-.15-.5-.47Z"/><path class="cls-1" d="M33.91,10.39H28.72V24.56h5.19c4.28,0,7.38-3,7.38-7.06,0-4.25-3-7.12-7.38-7.11m4.88,7.09a4.64,4.64,0,0,1-4.95,4.91H31.23V12.56h2.61A4.56,4.56,0,0,1,38.79,17.48Z"/><path class="cls-1" d="M51.39,17.22A3.88,3.88,0,0,0,52.92,14c0-2.27-1.82-3.64-4.88-3.63H42.42V24.56h5.72c3.46,0,5.52-1.52,5.52-4a3.41,3.41,0,0,0-2.27-3.29m-4.29-1a1,1,0,0,0-.8.82,1.29,1.29,0,0,0,.19.93.91.91,0,0,0,.58.36,8.39,8.39,0,0,0,1.06.09c1.11.05,2.29.1,2.82,1.09a1.85,1.85,0,0,1-.12,1.9,2.82,2.82,0,0,1-2.3,1l-.46,0H44.92V12.56h2.86c1.88,0,2.64.54,2.64,1.69a1.88,1.88,0,0,1-.72,1.56,2.84,2.84,0,0,1-1.65.32A5.32,5.32,0,0,0,47.1,16.2Z"/><path class="cls-2" d="M7.73,12.61a9.09,9.09,0,0,0-3.26-1.94,8.72,8.72,0,0,0-2.64-.57c-.79,0-1.46.25-1.63,1C-.13,12.63,0,25.5.14,27,.22,28.09.68,28.72,2,28.7,10.91,28.55,13.26,17.71,7.73,12.61Z"/><path class="cls-3" d="M18,2.28A8.44,8.44,0,0,0,15,.52,7.59,7.59,0,0,0,12.62,0c-.72,0-1.33.23-1.49.94-.29,1.36-.15,13-.05,14.4.08,1,.49,1.57,1.66,1.55C20.86,16.75,23,6.91,18,2.28Z"/><path class="cls-4" d="M21.57,13.13a10.82,10.82,0,0,0-3.72-2.21,9.82,9.82,0,0,0-3-.65c-.9,0-1.67.29-1.87,1.19-.38,1.7-.19,16.38-.06,18.08.1,1.25.61,2,2.08,1.95C25.18,31.33,27.87,19,21.57,13.13Z"/></g></g></svg>