<svg xmlns="http://www.w3.org/2000/svg" xmlns:xlink="http://www.w3.org/1999/xlink" viewBox="0 0 115.09 31.49"><defs><style>.cls-1{fill:#007f41;}.cls-2{fill:url(#linear-gradient);}.cls-3{fill:url(#linear-gradient-2);}.cls-4{fill:url(#linear-gradient-3);}</style><linearGradient id="linear-gradient" x1="742.7" y1="406.61" x2="742.9" y2="406.61" gradientTransform="matrix(-55.21, -0.53, -0.53, 55.21, 41226.33, -22036.9)" gradientUnits="userSpaceOnUse"><stop offset="0.1" stop-color="#ee7800"/><stop offset="0.25" stop-color="#ec7202"/><stop offset="0.46" stop-color="#e56207"/><stop offset="0.69" stop-color="#db470f"/><stop offset="0.93" stop-color="#cc211a"/><stop offset="1" stop-color="#c8161d"/></linearGradient><linearGradient id="linear-gradient-2" x1="694.06" y1="409.18" x2="694.26" y2="409.18" gradientTransform="matrix(49.41, 0.47, 0.47, -49.41, -34475.31, 19899.08)" gradientUnits="userSpaceOnUse"><stop offset="0" stop-color="#20aee5"/><stop offset="0.55" stop-color="#0f7fc4"/><stop offset="1" stop-color="#0054a7"/></linearGradient><linearGradient id="linear-gradient-3" x1="702.3" y1="409.57" x2="702.5" y2="409.57" gradientTransform="matrix(73.02, 0.7, 0.7, -73.02, -51557.63, 29439.89)" gradientUnits="userSpaceOnUse"><stop offset="0" stop-color="#8fc31f"/><stop offset="0.14" stop-color="#89c121"/><stop offset="0.31" stop-color="#79bb27"/><stop offset="0.52" stop-color="#5eb030"/><stop offset="0.73" stop-color="#38a23d"/><stop offset="0.96" stop-color="#08904d"/><stop offset="1" stop-color="#008d50"/></linearGradient></defs><g id="레이어_2" data-name="레이어 2"><g id="Layer_1" data-name="Layer 1"><path class="cls-1" d="M74.6,15.34A4.51,4.51,0,0,0,76,16a5.66,5.66,0,0,0,1.71.25A5.59,5.59,0,0,0,79.4,16a4.56,4.56,0,0,0,1.4-.68,3.45,3.45,0,0,0,.9-1.05,2.64,2.64,0,0,0,0-2.52,3.54,3.54,0,0,0-.9-1A4.36,4.36,0,0,0,79.4,10a5.92,5.92,0,0,0-1.7-.24A6,6,0,0,0,76,10a4.31,4.31,0,0,0-1.39.69,3.27,3.27,0,0,0-.9,1,2.57,2.57,0,0,0,0,2.52A3.2,3.2,0,0,0,74.6,15.34Zm.81-3a1.88,1.88,0,0,1,.52-.58,2.62,2.62,0,0,1,.79-.37,3.72,3.72,0,0,1,2,0,2.8,2.8,0,0,1,.8.37,2.17,2.17,0,0,1,.52.58,1.42,1.42,0,0,1,.18.69,1.46,1.46,0,0,1-.18.7,1.88,1.88,0,0,1-.52.57,2.37,2.37,0,0,1-.8.38,3.72,3.72,0,0,1-2,0,2.23,2.23,0,0,1-.79-.38,1.65,1.65,0,0,1-.52-.57,1.37,1.37,0,0,1-.19-.7A1.33,1.33,0,0,1,75.41,12.34Z"/><path class="cls-1" d="M84.36,16.87a.8.8,0,0,0-.55-.22H71.57a.74.74,0,0,0-.54.22.79.79,0,0,0-.22.56A.77.77,0,0,0,71,18a.74.74,0,0,0,.54.22h2.07v.62a.92.92,0,0,0,.93.93.85.85,0,0,0,.23,0l-.1.07a3.32,3.32,0,0,0-.87,1A2.59,2.59,0,0,0,73.52,22a2.66,2.66,0,0,0,.31,1.22,3.1,3.1,0,0,0,.87,1,4.49,4.49,0,0,0,1.35.67,5.58,5.58,0,0,0,1.65.24,5.47,5.47,0,0,0,1.64-.24,4.49,4.49,0,0,0,1.35-.67,2.88,2.88,0,0,0,.87-1A2.54,2.54,0,0,0,81.87,22a2.48,2.48,0,0,0-.31-1.21,3.07,3.07,0,0,0-.87-1l-.1-.07a.91.91,0,0,0,.23,0,.9.9,0,0,0,.66-.27.91.91,0,0,0,.27-.66v-.62h2.06a.8.8,0,0,0,.55-.22.73.73,0,0,0,.22-.53A.75.75,0,0,0,84.36,16.87Zm-4.51,5.78a1.66,1.66,0,0,1-.49.54,2.18,2.18,0,0,1-.75.36,3.55,3.55,0,0,1-1.83,0,2.22,2.22,0,0,1-.74-.36,1.7,1.7,0,0,1-.5-.54,1.41,1.41,0,0,1-.17-.66,1.36,1.36,0,0,1,.17-.64,1.73,1.73,0,0,1,.5-.55,2.41,2.41,0,0,1,.74-.35,3.55,3.55,0,0,1,1.83,0,2.36,2.36,0,0,1,.75.35,1.69,1.69,0,0,1,.49.55A1.25,1.25,0,0,1,80,22,1.3,1.3,0,0,1,79.85,22.65Zm.25-3.24a4.82,4.82,0,0,0-.76-.31,5.8,5.8,0,0,0-1.64-.23,5.93,5.93,0,0,0-1.65.23,5.24,5.24,0,0,0-.76.31.91.91,0,0,0,.23-.61v-.62h4.35v.62A.93.93,0,0,0,80.1,19.41Z"/><path class="cls-1" d="M33.9,10.38H28.71V24.56H33.9c4.28,0,7.39-3,7.39-7.06,0-4.26-3-7.12-7.39-7.12m4.88,7.1a4.63,4.63,0,0,1-5,4.9H31.22V12.56h2.61A4.55,4.55,0,0,1,38.78,17.48Z"/><path class="cls-1" d="M51.39,17.22A3.92,3.92,0,0,0,52.92,14c0-2.28-1.83-3.64-4.89-3.64H42.41V24.56h5.72c3.46,0,5.52-1.52,5.52-4a3.41,3.41,0,0,0-2.26-3.29m-4.29-1a1,1,0,0,0-.81.82,1.25,1.25,0,0,0,.2.93.9.9,0,0,0,.57.36c.33.05.68.07,1.06.09,1.12.05,2.3.1,2.83,1.08a1.9,1.9,0,0,1-.12,1.91,2.87,2.87,0,0,1-2.3,1H44.91V12.56h2.86c1.89,0,2.65.54,2.65,1.69a1.85,1.85,0,0,1-.72,1.55,2.94,2.94,0,0,1-1.65.33A5.26,5.26,0,0,0,47.1,16.2Z"/><path class="cls-1" d="M68.73,15.8H56.57A.78.78,0,0,0,56,16a.76.76,0,0,0-.23.58.74.74,0,0,0,.23.57.78.78,0,0,0,.57.24H68.73a.8.8,0,0,0,.8-.81A.8.8,0,0,0,69.3,16,.78.78,0,0,0,68.73,15.8Z"/><path class="cls-1" d="M58.09,12.19h7.44v2.18a.94.94,0,0,0,.28.68,1,1,0,0,0,.69.27.94.94,0,0,0,.93-1V10.65H58.09a.74.74,0,0,0-.53.23.73.73,0,0,0,0,1.08A.74.74,0,0,0,58.09,12.19Z"/><path class="cls-1" d="M57.31,18.86a.68.68,0,0,0,.45.7v3q0,1.65,1.8,1.65h6.18c1.21,0,1.81-.55,1.81-1.65V18.69H57.31Zm2.31,1.36h6.07v2a.42.42,0,0,1-.48.48H60.1a.42.42,0,0,1-.48-.48Z"/><path class="cls-1" d="M87.85,11.59V16.2c0,1.1.6,1.64,1.8,1.64h7.49a.75.75,0,0,0,.55-.22.76.76,0,0,0,.23-.55.78.78,0,0,0-.23-.54.76.76,0,0,0-.55-.23H90.21c-.32,0-.48-.17-.48-.5V15H97a.73.73,0,0,0,.54-.22.72.72,0,0,0,.21-.53.76.76,0,0,0-.21-.54.7.7,0,0,0-.54-.23H89.73V12.27H97a.76.76,0,0,0,.55-.23.73.73,0,0,0,.22-.54.76.76,0,0,0-.22-.54.73.73,0,0,0-.55-.23H87.42v.16A.68.68,0,0,0,87.85,11.59Z"/><path class="cls-1" d="M98.85,19.08H86.63a.75.75,0,0,0-.77.77.71.71,0,0,0,.22.55.72.72,0,0,0,.55.22h5.19v2.86a.94.94,0,0,0,.93.93.87.87,0,0,0,.66-.28.91.91,0,0,0,.27-.65V20.62h5.17a.75.75,0,0,0,.78-.77.76.76,0,0,0-.22-.55A.75.75,0,0,0,98.85,19.08Z"/><path class="cls-1" d="M109.45,18.74a12.45,12.45,0,0,1-2.07-2.34,6.13,6.13,0,0,1-1-3.5v-.26h2.46a.8.8,0,0,0,.79-.79.8.8,0,0,0-.24-.58.74.74,0,0,0-.55-.24H102a.77.77,0,0,0-.56.24.8.8,0,0,0-.24.58.76.76,0,0,0,.24.56.8.8,0,0,0,.56.23h2.56v.17a6.48,6.48,0,0,1-1,3.65,10.45,10.45,0,0,1-2.25,2.41.78.78,0,0,0-.22.26.8.8,0,0,0,0,.88.82.82,0,0,0,.64.32,1.14,1.14,0,0,0,.59-.14,10.75,10.75,0,0,0,2.8-2.94,5.85,5.85,0,0,0,.38-.63,2.33,2.33,0,0,0,.2.34A12.9,12.9,0,0,0,108.44,20a.55.55,0,0,0,.23.14,1.34,1.34,0,0,0,.33,0,.83.83,0,0,0,.65-.31.72.72,0,0,0,.16-.62.54.54,0,0,0-.11-.26A1.2,1.2,0,0,0,109.45,18.74Z"/><path class="cls-1" d="M114.84,15a.85.85,0,0,0-.6-.24h-1.59V10.39h-2.3v.18a.69.69,0,0,0,.42.7V23.48a.88.88,0,0,0,.28.65.91.91,0,0,0,.67.28,1,1,0,0,0,.93-.93v-7.1h1.59a.82.82,0,0,0,.6-.25.77.77,0,0,0,.25-.58A.79.79,0,0,0,114.84,15Z"/><path class="cls-2" d="M7.73,12.61a9.26,9.26,0,0,0-3.26-1.95,9,9,0,0,0-2.64-.56c-.79,0-1.46.25-1.63,1C-.13,12.64,0,25.5.14,27,.22,28.08.68,28.72,2,28.7,10.91,28.55,13.26,17.71,7.73,12.61Z"/><path class="cls-3" d="M18,2.28A8.53,8.53,0,0,0,15,.52,7.59,7.59,0,0,0,12.62,0c-.72,0-1.33.23-1.49.94-.29,1.36-.15,13-.05,14.4.08,1,.49,1.56,1.66,1.55C20.86,16.75,23,6.91,18,2.28Z"/><path class="cls-4" d="M21.57,13.13a10.82,10.82,0,0,0-3.72-2.21,9.82,9.82,0,0,0-3-.65c-.9,0-1.67.29-1.87,1.19-.38,1.7-.19,16.38-.06,18.08.1,1.25.61,2,2.08,1.95C25.19,31.33,27.87,19,21.57,13.13Z"/></g></g></svg>