<svg xmlns="http://www.w3.org/2000/svg" xmlns:xlink="http://www.w3.org/1999/xlink" viewBox="0 0 79.88 54.51"><defs><style>.cls-1{fill:url(#linear-gradient);}.cls-2{fill:url(#linear-gradient-2);}.cls-3{fill:url(#linear-gradient-3);}.cls-4{fill:#007f41;}</style><linearGradient id="linear-gradient" x1="127.92" y1="491.33" x2="128.15" y2="491.33" gradientTransform="matrix(-55.21, -0.53, -0.53, 55.21, 7358.4, -27034.48)" gradientUnits="userSpaceOnUse"><stop offset="0.1" stop-color="#ee7800"/><stop offset="0.25" stop-color="#ec7202"/><stop offset="0.46" stop-color="#e56207"/><stop offset="0.69" stop-color="#db470f"/><stop offset="0.93" stop-color="#cc211a"/><stop offset="1" stop-color="#c8161d"/></linearGradient><linearGradient id="linear-gradient-2" x1="103.43" y1="497.36" x2="103.66" y2="497.36" gradientTransform="matrix(49.41, 0.47, 0.47, -49.41, -5306.62, 24535.54)" gradientUnits="userSpaceOnUse"><stop offset="0" stop-color="#20aee5"/><stop offset="1" stop-color="#0054a7"/></linearGradient><linearGradient id="linear-gradient-3" x1="107.55" y1="497.13" x2="107.78" y2="497.13" gradientTransform="matrix(73.02, 0.7, 0.7, -73.02, -8160.6, 36250.97)" gradientUnits="userSpaceOnUse"><stop offset="0" stop-color="#8fc31f"/><stop offset="0.14" stop-color="#89c121"/><stop offset="0.31" stop-color="#79bb27"/><stop offset="0.52" stop-color="#5eb030"/><stop offset="0.73" stop-color="#38a23d"/><stop offset="0.96" stop-color="#08904d"/><stop offset="1" stop-color="#008d50"/></linearGradient></defs><g id="레이어_2" data-name="레이어 2"><g id="Layer_1" data-name="Layer 1"><path class="cls-1" d="M34.49,14.48a10.52,10.52,0,0,0-3.74-2.23,9.89,9.89,0,0,0-3-.65c-.9,0-1.67.28-1.87,1.19-.37,1.72-.2,16.49-.06,18.2.09,1.25.62,2,2.09,2C38.14,32.78,40.83,20.33,34.49,14.48Z"/><path class="cls-2" d="M46.26,2.62a9.84,9.84,0,0,0-3.4-2A9.08,9.08,0,0,0,40.1,0c-.82,0-1.52.27-1.7,1.08-.34,1.56-.18,15-.06,16.53.09,1.13.56,1.8,1.9,1.78C49.57,19.23,52,7.93,46.26,2.62Z"/><path class="cls-3" d="M50.37,15.08a12.11,12.11,0,0,0-4.26-2.54,11.32,11.32,0,0,0-3.47-.74c-1,0-1.92.32-2.14,1.36-.44,2-.23,18.8-.08,20.76.12,1.43.71,2.26,2.39,2.24C54.53,36,57.61,21.76,50.37,15.08Z"/><path class="cls-4" d="M37.85,48.08H33v-2H30.82v.15a.67.67,0,0,0,.41.68v1.14H26.37a.7.7,0,0,0-.54.22.73.73,0,0,0-.22.54.72.72,0,0,0,.22.55.7.7,0,0,0,.54.22H37.85a.69.69,0,0,0,.53-.22.73.73,0,0,0,.23-.55.74.74,0,0,0-.23-.54A.69.69,0,0,0,37.85,48.08Z"/><path class="cls-4" d="M36.38,52.63H29.82a.4.4,0,0,1-.45-.45V50.51H27.15v.15a.67.67,0,0,0,.43.67v1.26q0,1.56,1.74,1.56h7.06a.73.73,0,0,0,.53-.22.72.72,0,0,0,0-1.07A.74.74,0,0,0,36.38,52.63Z"/><path class="cls-4" d="M27.2,47.05a1.13,1.13,0,0,0,.44,0,8.11,8.11,0,0,0,1.63-.66,10.85,10.85,0,0,0,1.2-.78,5.93,5.93,0,0,0,1.67-1.68,6.2,6.2,0,0,0,1.67,1.68,11.21,11.21,0,0,0,1.22.78,8.25,8.25,0,0,0,1.62.66,1.13,1.13,0,0,0,.44,0,.65.65,0,0,0,.57-.4.69.69,0,0,0,0-.68.89.89,0,0,0-.51-.38,7.59,7.59,0,0,1-1.62-.69,7.71,7.71,0,0,1-1.17-.85A3.76,3.76,0,0,1,33,41.24v-.18H30.82v.17a.83.83,0,0,0,.06.32,1.4,1.4,0,0,0,.25.31,3.26,3.26,0,0,1-1.21,2.19,8.72,8.72,0,0,1-1.16.85,6.8,6.8,0,0,1-1.62.69.88.88,0,0,0-.52.38.74.74,0,0,0,0,.68A.67.67,0,0,0,27.2,47.05Z"/><path class="cls-4" d="M50.89,44.83H49.75V41.06H47.67v.17a.67.67,0,0,0,.43.66V53.48a.82.82,0,0,0,.83.82.78.78,0,0,0,.58-.24.8.8,0,0,0,.24-.58V46.4h1.14v7.06a.79.79,0,0,0,.25.59.82.82,0,0,0,1.18,0,.79.79,0,0,0,.25-.59V41.06H50.89Z"/><path class="cls-4" d="M46.66,42.27h-2.2V41H42.61v1.3h-2.3a.75.75,0,1,0,0,1.49h.51a3.74,3.74,0,0,0-.61.93,3.31,3.31,0,0,0-.3,1.39,3.51,3.51,0,0,0,.29,1.4A3.9,3.9,0,0,0,41,48.63a3.59,3.59,0,0,0,1.13.77,3.49,3.49,0,0,0,1.41.29,3.43,3.43,0,0,0,1.39-.29A3.84,3.84,0,0,0,46,48.63a3.9,3.9,0,0,0,.78-1.15,3.68,3.68,0,0,0,.28-1.4,3.31,3.31,0,0,0-.3-1.39,3.42,3.42,0,0,0-.59-.93h.45a.77.77,0,0,0,.53-.22.71.71,0,0,0,0-1A.77.77,0,0,0,46.66,42.27Zm-1.37,4.6a2,2,0,0,1-.41.68,1.93,1.93,0,0,1-.63.47,1.7,1.7,0,0,1-.73.17,1.79,1.79,0,0,1-1.38-.64,2,2,0,0,1-.4-.68,2.4,2.4,0,0,1,0-1.67,2,2,0,0,1,.4-.68,1.73,1.73,0,0,1,.61-.47,1.84,1.84,0,0,1,.77-.17,1.7,1.7,0,0,1,.73.17,1.8,1.8,0,0,1,.63.47,2,2,0,0,1,.41.68,2.26,2.26,0,0,1,0,1.67Z"/><path class="cls-4" d="M66.66,51H61.81V48.81h2c1.14,0,1.71-.52,1.71-1.55V41.5H63.39v.15a.66.66,0,0,0,.39.67v1.3h-5.7V41.5H55.9v.15a.66.66,0,0,0,.41.67v4.94c0,1,.57,1.55,1.69,1.55h2.06V51H55.19a.73.73,0,0,0-.54.21.72.72,0,0,0-.22.55.73.73,0,0,0,.76.75H66.66a.74.74,0,0,0,.77-.75.76.76,0,0,0-.22-.55A.77.77,0,0,0,66.66,51Zm-8.12-3.67a.41.41,0,0,1-.46-.47V45.15h5.7v1.69c0,.31-.15.47-.45.47Z"/><path class="cls-4" d="M77.71,41.06v.17a.65.65,0,0,0,.41.66v2.67H75.65l-.09-.22a3.26,3.26,0,0,0-.65-.85h1a.69.69,0,0,0,.5-.21.7.7,0,0,0,.2-.49.71.71,0,0,0-.2-.49.67.67,0,0,0-.5-.23H73.3V40.85h-2v1.22H68.74a.65.65,0,0,0-.48.23.68.68,0,0,0-.21.49.72.72,0,0,0,.69.7h1a3.1,3.1,0,0,0-.66.85,2.53,2.53,0,0,0-.26,1.18A2.79,2.79,0,0,0,69,46.74a3,3,0,0,0,.77,1,3.61,3.61,0,0,0,1.11.67,3.94,3.94,0,0,0,1.39.24,3.81,3.81,0,0,0,1.36-.24,4,4,0,0,0,1.13-.67,3.09,3.09,0,0,0,.76-1,3.21,3.21,0,0,0,.21-.75h2.35v1.94a.82.82,0,0,0,.26.62.88.88,0,0,0,1.5-.62V41.06Zm-4.13,5.66a1.86,1.86,0,0,1-2.56,0,1.68,1.68,0,0,1-.5-1.22,1.66,1.66,0,0,1,.5-1.21,1.89,1.89,0,0,1,2.56,0,1.69,1.69,0,0,1,.49,1.21A1.72,1.72,0,0,1,73.58,46.72Z"/><path class="cls-4" d="M70.47,49.48a.65.65,0,0,0,.41.66v2.45c0,1,.57,1.56,1.72,1.56h5.58c1.13,0,1.7-.52,1.7-1.56V49.32H70.47Zm2.17,1.27h5.49v1.5c0,.31-.16.46-.48.46H73.13c-.33,0-.49-.15-.49-.46Z"/><path class="cls-4" d="M5,40.86H0V54.51H5c4.12,0,7.12-2.86,7.12-6.8,0-4.1-2.87-6.86-7.12-6.85m4.7,6.83a4.46,4.46,0,0,1-4.77,4.73H2.41V43H4.93A4.39,4.39,0,0,1,9.7,47.69Z"/><path class="cls-4" d="M21.85,47.45a3.79,3.79,0,0,0,1.48-3.09c0-2.2-1.76-3.51-4.71-3.5H13.2V54.51h5.51c3.33,0,5.32-1.46,5.32-3.9a3.26,3.26,0,0,0-2.18-3.16m-4.13-1a.94.94,0,0,0-.78.79,1.19,1.19,0,0,0,.19.89.79.79,0,0,0,.55.35,8.06,8.06,0,0,0,1,.09c1.08,0,2.22.09,2.72,1a1.81,1.81,0,0,1-.11,1.84,2.77,2.77,0,0,1-2.22.95H15.61V43h2.76c1.81,0,2.54.52,2.54,1.63a1.77,1.77,0,0,1-.69,1.5,2.73,2.73,0,0,1-1.59.31A5.75,5.75,0,0,0,17.72,46.46Z"/></g></g></svg>