<svg xmlns="http://www.w3.org/2000/svg" xmlns:xlink="http://www.w3.org/1999/xlink" viewBox="0 0 86.82 31.49"><defs><style>.cls-1{fill:url(#linear-gradient);}.cls-2{fill:url(#linear-gradient-2);}.cls-3{fill:url(#linear-gradient-3);}.cls-4{fill:#007f41;}</style><linearGradient id="linear-gradient" x1="742.66" y1="192.66" x2="742.86" y2="192.66" gradientTransform="matrix(-55.21, -0.53, -0.53, 55.21, 41111.65, -10225.79)" gradientUnits="userSpaceOnUse"><stop offset="0.1" stop-color="#ee7800"/><stop offset="0.25" stop-color="#ec7202"/><stop offset="0.46" stop-color="#e56207"/><stop offset="0.69" stop-color="#db470f"/><stop offset="0.93" stop-color="#cc211a"/><stop offset="1" stop-color="#c8161d"/></linearGradient><linearGradient id="linear-gradient-2" x1="694.1" y1="186.88" x2="694.3" y2="186.88" gradientTransform="matrix(49.41, 0.47, 0.47, -49.41, -34372.66, 8915.13)" gradientUnits="userSpaceOnUse"><stop offset="0" stop-color="#20aee5"/><stop offset="0.55" stop-color="#0f7fc4"/><stop offset="1" stop-color="#0054a7"/></linearGradient><linearGradient id="linear-gradient-3" x1="702.33" y1="188.69" x2="702.53" y2="188.69" gradientTransform="matrix(73.02, 0.7, 0.7, -73.02, -51405.93, 13310.73)" gradientUnits="userSpaceOnUse"><stop offset="0" stop-color="#8fc31f"/><stop offset="0.14" stop-color="#89c121"/><stop offset="0.31" stop-color="#79bb27"/><stop offset="0.52" stop-color="#5eb030"/><stop offset="0.73" stop-color="#38a23d"/><stop offset="0.96" stop-color="#08904d"/><stop offset="1" stop-color="#008d50"/></linearGradient></defs><g id="레이어_2" data-name="레이어 2"><g id="Layer_1" data-name="Layer 1"><path class="cls-1" d="M7.73,12.61a9.09,9.09,0,0,0-3.26-1.94,8.72,8.72,0,0,0-2.64-.57c-.79,0-1.46.25-1.63,1C-.13,12.63,0,25.5.14,27c.08,1.09.54,1.73,1.82,1.7C10.91,28.55,13.25,17.71,7.73,12.61Z"/><path class="cls-2" d="M18,2.28A8.71,8.71,0,0,0,15,.51,7.88,7.88,0,0,0,12.62,0c-.72,0-1.33.23-1.49.94-.29,1.36-.15,13-.05,14.39.08,1,.49,1.57,1.66,1.56C20.86,16.75,23,6.91,18,2.28Z"/><path class="cls-3" d="M21.57,13.13a10.82,10.82,0,0,0-3.72-2.21,9.82,9.82,0,0,0-3-.65c-.9,0-1.67.29-1.87,1.19-.38,1.7-.19,16.38-.06,18.08.1,1.25.61,2,2.08,1.95C25.18,31.33,27.87,19,21.57,13.13Z"/><path class="cls-4" d="M33.9,10.39H28.72V24.55H33.9c4.28,0,7.39-3,7.39-7,0-4.26-3-7.11-7.39-7.11m4.88,7.09a4.64,4.64,0,0,1-5,4.91H31.22V12.56h2.61a4.55,4.55,0,0,1,5,4.92"/><path class="cls-4" d="M51.38,17.22A3.88,3.88,0,0,0,52.92,14c0-2.28-1.83-3.64-4.89-3.64H42.4V24.55h5.73c3.45,0,5.52-1.51,5.52-4a3.4,3.4,0,0,0-2.27-3.29m-4.28-1a1,1,0,0,0-.81.82,1.2,1.2,0,0,0,.2.93.86.86,0,0,0,.57.36,8.39,8.39,0,0,0,1.06.09c1.11.05,2.3.1,2.82,1.09a1.83,1.83,0,0,1-.12,1.9,2.85,2.85,0,0,1-2.3,1l-.45,0H44.91V12.56h2.86c1.88,0,2.64.54,2.64,1.69a1.9,1.9,0,0,1-.71,1.56,2.89,2.89,0,0,1-1.66.32,5.15,5.15,0,0,0-.94.07"/><path class="cls-4" d="M57.74,10.6v.2a.77.77,0,0,0,.58.78V23.37a.76.76,0,0,0-.58.76v.21H61v-.21a.76.76,0,0,0-.58-.76V11.58A.77.77,0,0,0,61,10.8v-.2Z"/><path class="cls-4" d="M68.38,14.15a3.27,3.27,0,0,0-2.87,1.78V14.4H63v.19a.73.73,0,0,0,.51.76v8.2a1,1,0,0,0,.3.73,1.08,1.08,0,0,0,1.47,0,1,1,0,0,0,.3-.73V19.39a4.69,4.69,0,0,1,.3-2,2.18,2.18,0,0,1,2-1.37,1.9,1.9,0,0,1,1.69.77,4.24,4.24,0,0,1,.52,2.35v4.38a1,1,0,0,0,.3.73,1.08,1.08,0,0,0,1.47,0,1,1,0,0,0,.3-.73v-5a4.6,4.6,0,0,0-1.08-3.21,3.45,3.45,0,0,0-2.69-1.2"/><path class="cls-4" d="M85.81,22.43a1,1,0,1,0,1,1,1,1,0,0,0-1-1"/><path class="cls-4" d="M83.42,23.45a1.6,1.6,0,0,1-.28.22,6,6,0,0,1-3.18.9,5.58,5.58,0,0,1-4-1.51,4.85,4.85,0,0,1-1.6-3.67A4.92,4.92,0,0,1,76,15.66a5.58,5.58,0,0,1,4-1.51,5.75,5.75,0,0,1,3.23,1l.16.13a.85.85,0,0,1,.27.64.88.88,0,0,1-.28.64.86.86,0,0,1-.63.27,1,1,0,0,1-.57-.18A4.3,4.3,0,0,0,80,16.05a3.39,3.39,0,0,0-2.56,1,3.25,3.25,0,0,0-1,2.37,3.17,3.17,0,0,0,1,2.32,3.43,3.43,0,0,0,2.56,1A4.5,4.5,0,0,0,82.31,22a.84.84,0,0,1,.45-.12.91.91,0,0,1,.64.28.88.88,0,0,1,.28.65.9.9,0,0,1-.26.64"/></g></g></svg>