<svg xmlns="http://www.w3.org/2000/svg" xmlns:xlink="http://www.w3.org/1999/xlink" viewBox="0 0 55.95 54.46"><defs><style>.cls-1{fill:url(#linear-gradient);}.cls-2{fill:url(#linear-gradient-2);}.cls-3{fill:url(#linear-gradient-3);}.cls-4{fill:#007f41;}</style><linearGradient id="linear-gradient" x1="-259.36" y1="261.02" x2="-259.13" y2="261.02" gradientTransform="matrix(-55.21, -0.53, -0.53, 55.21, -14154.71, -14523.98)" gradientUnits="userSpaceOnUse"><stop offset="0.1" stop-color="#ee7800"/><stop offset="0.25" stop-color="#ec7202"/><stop offset="0.46" stop-color="#e56207"/><stop offset="0.69" stop-color="#db470f"/><stop offset="0.93" stop-color="#cc211a"/><stop offset="1" stop-color="#c8161d"/></linearGradient><linearGradient id="linear-gradient-2" x1="-269.62" y1="258.2" x2="-269.39" y2="258.2" gradientTransform="matrix(49.41, 0.47, 0.47, -49.41, 13226.61, 12894.16)" gradientUnits="userSpaceOnUse"><stop offset="0" stop-color="#20aee5"/><stop offset="0.55" stop-color="#0f7fc4"/><stop offset="1" stop-color="#0054a7"/></linearGradient><linearGradient id="linear-gradient-3" x1="-267.93" y1="259.47" x2="-267.7" y2="259.47" gradientTransform="matrix(73.02, 0.7, 0.7, -73.02, 19411.75, 19158.15)" gradientUnits="userSpaceOnUse"><stop offset="0" stop-color="#8fc31f"/><stop offset="0.14" stop-color="#89c121"/><stop offset="0.31" stop-color="#79bb27"/><stop offset="0.52" stop-color="#5eb030"/><stop offset="0.73" stop-color="#38a23d"/><stop offset="0.96" stop-color="#08904d"/><stop offset="1" stop-color="#008d50"/></linearGradient></defs><g id="레이어_2" data-name="레이어 2"><g id="Layer_1" data-name="Layer 1"><path class="cls-1" d="M22.54,14.45a10.65,10.65,0,0,0-3.74-2.22,9.76,9.76,0,0,0-3-.65c-.9,0-1.67.29-1.87,1.19-.37,1.71-.2,16.46-.06,18.16.09,1.26.62,2,2.09,2C26.18,32.73,28.87,20.3,22.54,14.45Z"/><path class="cls-2" d="M34.29,2.61a9.72,9.72,0,0,0-3.4-2A9,9,0,0,0,28.14,0c-.82,0-1.52.27-1.7,1.08-.34,1.55-.18,15-.06,16.5.09,1.13.56,1.79,1.9,1.78C37.59,19.2,40,7.92,34.29,2.61Z"/><path class="cls-3" d="M38.4,15.05a12.33,12.33,0,0,0-4.26-2.53,11.25,11.25,0,0,0-3.46-.74c-1,0-1.92.32-2.15,1.35-.43,2-.22,18.78-.07,20.73.12,1.43.71,2.26,2.38,2.23C42.55,35.91,45.62,21.73,38.4,15.05Z"/><path class="cls-4" d="M5,40.8H0V54.45H5c4.12,0,7.11-2.86,7.11-6.8,0-4.1-2.86-6.85-7.11-6.85m4.7,6.84a4.46,4.46,0,0,1-4.77,4.72H2.4V42.89H4.92a4.4,4.4,0,0,1,4.77,4.75"/><path class="cls-4" d="M21.83,47.39a3.81,3.81,0,0,0,1.47-3.08c0-2.2-1.76-3.51-4.7-3.51H13.18V54.45h5.51C22,54.45,24,53,24,50.56a3.26,3.26,0,0,0-2.18-3.17m-4.13-1a.94.94,0,0,0-.78.79,1.18,1.18,0,0,0,.19.9.87.87,0,0,0,.55.35c.31.05.66.06,1,.08,1.07,0,2.21.1,2.72,1a1.8,1.8,0,0,1-.11,1.83,2.78,2.78,0,0,1-2.22,1H15.59V42.89h2.75c1.82,0,2.55.53,2.55,1.64A1.79,1.79,0,0,1,20.2,46a2.73,2.73,0,0,1-1.59.31,5.75,5.75,0,0,0-.91.07"/><path class="cls-4" d="M28,41v.19a.74.74,0,0,0,.56.75V53.3A.74.74,0,0,0,28,54v.2h3.13V54a.73.73,0,0,0-.55-.74V42a.73.73,0,0,0,.55-.75V41Z"/><path class="cls-4" d="M38.2,44.43a3.16,3.16,0,0,0-2.77,1.72V44.66H33v.19a.71.71,0,0,0,.5.74v7.89a1,1,0,0,0,1,1,1,1,0,0,0,1-1v-4a4.64,4.64,0,0,1,.28-1.9,2.11,2.11,0,0,1,1.91-1.31,1.8,1.8,0,0,1,1.63.74,4.14,4.14,0,0,1,.5,2.26v4.22a1,1,0,0,0,1,1,.94.94,0,0,0,.69-.28,1,1,0,0,0,.29-.7V48.67a4.46,4.46,0,0,0-1-3.09,3.34,3.34,0,0,0-2.59-1.15"/><path class="cls-4" d="M55,52.4a1,1,0,1,0,0,1.93,1,1,0,0,0,0-1.93"/><path class="cls-4" d="M52.68,53.38a1.39,1.39,0,0,1-.27.21,5.77,5.77,0,0,1-3.06.87A5.39,5.39,0,0,1,45.5,53a4.9,4.9,0,0,1,0-7.13,5.4,5.4,0,0,1,3.85-1.46,5.54,5.54,0,0,1,3.1,1l.16.12a.85.85,0,0,1,.26.62.84.84,0,0,1-.27.62A.83.83,0,0,1,52,47a.94.94,0,0,1-.54-.17,4,4,0,0,0-2.1-.59,3.27,3.27,0,0,0-2.47.94A3.12,3.12,0,0,0,46,49.47a3.09,3.09,0,0,0,.92,2.24,3.34,3.34,0,0,0,2.47.93A4.29,4.29,0,0,0,51.61,52a.86.86,0,0,1,.43-.11.84.84,0,0,1,.62.27.86.86,0,0,1,.27.62.83.83,0,0,1-.25.62"/></g></g></svg>