<svg xmlns="http://www.w3.org/2000/svg" xmlns:xlink="http://www.w3.org/1999/xlink" viewBox="0 0 83.25 55.05"><defs><style>.cls-1{fill:url(#linear-gradient);}.cls-2{fill:url(#linear-gradient-2);}.cls-3{fill:url(#linear-gradient-3);}.cls-4{fill:#007f41;}</style><linearGradient id="linear-gradient" x1="-245.67" y1="491.26" x2="-245.44" y2="491.26" gradientTransform="matrix(-55.21, -0.53, -0.53, 55.21, -13264.25, -27227.59)" gradientUnits="userSpaceOnUse"><stop offset="0.1" stop-color="#ee7800"/><stop offset="0.25" stop-color="#ec7202"/><stop offset="0.46" stop-color="#e56207"/><stop offset="0.69" stop-color="#db470f"/><stop offset="0.93" stop-color="#cc211a"/><stop offset="1" stop-color="#c8161d"/></linearGradient><linearGradient id="linear-gradient-2" x1="-256.02" y1="497.43" x2="-255.79" y2="497.43" gradientTransform="matrix(49.41, 0.47, 0.47, -49.41, 12455.52, 24708.36)" gradientUnits="userSpaceOnUse"><stop offset="0" stop-color="#20aee5"/><stop offset="1" stop-color="#0054a7"/></linearGradient><linearGradient id="linear-gradient-3" x1="-254.32" y1="497.18" x2="-254.09" y2="497.18" gradientTransform="matrix(73.02, 0.7, 0.7, -73.02, 18265.6, 36506.41)" gradientUnits="userSpaceOnUse"><stop offset="0" stop-color="#8fc31f"/><stop offset="0.14" stop-color="#89c121"/><stop offset="0.31" stop-color="#79bb27"/><stop offset="0.52" stop-color="#5eb030"/><stop offset="0.73" stop-color="#38a23d"/><stop offset="0.96" stop-color="#08904d"/><stop offset="1" stop-color="#008d50"/></linearGradient></defs><g id="레이어_2" data-name="레이어 2"><g id="Layer_1" data-name="Layer 1"><path class="cls-1" d="M36.18,14.48a10.57,10.57,0,0,0-3.75-2.23,9.76,9.76,0,0,0-3-.65c-.9,0-1.67.28-1.87,1.19-.38,1.72-.2,16.49-.07,18.2.1,1.25.63,2,2.1,2C39.83,32.78,42.52,20.33,36.18,14.48Z"/><path class="cls-2" d="M47.94,2.61a9.68,9.68,0,0,0-3.39-2A9.15,9.15,0,0,0,41.79,0C41,0,40.27.27,40.08,1.08c-.34,1.56-.17,15-.06,16.53.09,1.13.57,1.8,1.91,1.78C51.25,19.23,53.7,7.93,47.94,2.61Z"/><path class="cls-3" d="M52.06,15.08a12.15,12.15,0,0,0-4.27-2.54,11.25,11.25,0,0,0-3.46-.74c-1,0-1.92.32-2.15,1.36-.43,2-.22,18.8-.07,20.76.11,1.43.71,2.26,2.39,2.24C56.22,36,59.3,21.76,52.06,15.08Z"/><path class="cls-4" d="M44.22,45.62a4.7,4.7,0,0,0,1.35.65,5.47,5.47,0,0,0,1.64.24,5.56,5.56,0,0,0,1.64-.24,4.64,4.64,0,0,0,1.34-.65,3.12,3.12,0,0,0,.87-1,2.51,2.51,0,0,0,.31-1.21,2.45,2.45,0,0,0-.31-1.21,3.19,3.19,0,0,0-.87-1,4,4,0,0,0-1.34-.66,5.56,5.56,0,0,0-1.64-.24,5.47,5.47,0,0,0-1.64.24,4.05,4.05,0,0,0-1.35.66,3.19,3.19,0,0,0-.87,1A2.45,2.45,0,0,0,43,43.39a2.51,2.51,0,0,0,.31,1.21A3.12,3.12,0,0,0,44.22,45.62ZM45,42.73a2.05,2.05,0,0,1,.5-.57,2.59,2.59,0,0,1,.77-.35,3.19,3.19,0,0,1,.94-.13,3.12,3.12,0,0,1,.93.13,2.48,2.48,0,0,1,.77.35,1.9,1.9,0,0,1,.5.57,1.31,1.31,0,0,1,.18.66,1.35,1.35,0,0,1-.18.67,1.73,1.73,0,0,1-.5.55,2.3,2.3,0,0,1-.77.37,3.48,3.48,0,0,1-.93.12,3.56,3.56,0,0,1-.94-.12,2.39,2.39,0,0,1-.77-.37,1.86,1.86,0,0,1-.5-.55,1.35,1.35,0,0,1-.18-.67A1.31,1.31,0,0,1,45,42.73Z"/><path class="cls-4" d="M53.62,47.09a.72.72,0,0,0-.52-.21H41.3a.7.7,0,0,0-.52.21.72.72,0,0,0-.21.53.73.73,0,0,0,.21.52.7.7,0,0,0,.52.21h2V49a.84.84,0,0,0,.26.63.85.85,0,0,0,.63.26l.23,0-.1.06a3.12,3.12,0,0,0-.84,1,2.42,2.42,0,0,0-.3,1.16,2.49,2.49,0,0,0,.3,1.18,3.12,3.12,0,0,0,.84,1,4.25,4.25,0,0,0,1.3.63,5.35,5.35,0,0,0,3.17,0,4.25,4.25,0,0,0,1.3-.63,3.12,3.12,0,0,0,.84-1,2.49,2.49,0,0,0,.3-1.18,2.42,2.42,0,0,0-.3-1.16,3.12,3.12,0,0,0-.84-1L50,49.82l.22,0a.89.89,0,0,0,.89-.89v-.6h2a.72.72,0,0,0,.52-.21.7.7,0,0,0,.22-.52A.69.69,0,0,0,53.62,47.09Zm-4.34,5.57a1.52,1.52,0,0,1-.47.51,1.94,1.94,0,0,1-.72.35,3.32,3.32,0,0,1-1.77,0,2,2,0,0,1-.72-.35,1.52,1.52,0,0,1-.47-.51A1.3,1.3,0,0,1,45,52a1.22,1.22,0,0,1,.17-.61,1.83,1.83,0,0,1,.47-.54,2.64,2.64,0,0,1,.72-.33,3.32,3.32,0,0,1,1.77,0,2.51,2.51,0,0,1,.72.33,1.83,1.83,0,0,1,.47.54,1.22,1.22,0,0,1,.17.61A1.3,1.3,0,0,1,49.28,52.66Zm.25-3.13a5,5,0,0,0-.74-.29,5.82,5.82,0,0,0-3.17,0,5.42,5.42,0,0,0-.74.29.83.83,0,0,0,.23-.58v-.6H49.3V49A.83.83,0,0,0,49.53,49.53Z"/><path class="cls-4" d="M5,40.84H0V54.5H5c4.12,0,7.12-2.87,7.12-6.81,0-4.1-2.87-6.85-7.12-6.85m4.7,6.84A4.46,4.46,0,0,1,4.93,52.4H2.41V42.93H4.93A4.39,4.39,0,0,1,9.7,47.68Z"/><path class="cls-4" d="M21.85,47.43a3.79,3.79,0,0,0,1.48-3.09c0-2.19-1.76-3.5-4.71-3.5H13.2V54.5h5.51C22.05,54.5,24,53,24,50.6a3.27,3.27,0,0,0-2.18-3.17m-4.13-1a.94.94,0,0,0-.78.79,1.27,1.27,0,0,0,.19.9.87.87,0,0,0,.55.35c.32.05.66.06,1,.08,1.08,0,2.22.1,2.72,1a1.77,1.77,0,0,1-.11,1.83,2.74,2.74,0,0,1-2.22,1H15.61V42.93h2.76c1.81,0,2.54.52,2.54,1.63a1.82,1.82,0,0,1-.68,1.5,2.78,2.78,0,0,1-1.6.31A5.75,5.75,0,0,0,17.72,46.44Z"/><path class="cls-4" d="M38.56,46.06H26.85a.78.78,0,0,0-.55,1.34.74.74,0,0,0,.55.22H38.56a.74.74,0,0,0,.55-.22.79.79,0,0,0-.55-1.34Z"/><path class="cls-4" d="M28.32,42.58h7.16v2.1a.86.86,0,0,0,.27.65.9.9,0,0,0,.66.27.83.83,0,0,0,.63-.27.86.86,0,0,0,.27-.65V41.09h-9a.79.79,0,0,0-.75.75.69.69,0,0,0,.23.51A.71.71,0,0,0,28.32,42.58Z"/><path class="cls-4" d="M27.56,49a.65.65,0,0,0,.43.68v2.9c0,1.06.58,1.59,1.73,1.59h6c1.17,0,1.75-.53,1.75-1.59V48.85H27.56Zm2.23,1.32h5.84v1.9a.4.4,0,0,1-.46.46H30.25a.4.4,0,0,1-.46-.46Z"/><path class="cls-4" d="M57,42v4.45c0,1,.58,1.58,1.74,1.58h7.21a.75.75,0,0,0,.53-.22.72.72,0,0,0,.23-.53.73.73,0,0,0-.23-.52.71.71,0,0,0-.53-.22H59.27c-.31,0-.46-.16-.46-.48v-.74h7a.7.7,0,0,0,.72-.73.77.77,0,0,0-.2-.52.7.7,0,0,0-.52-.22h-7v-1.2h7a.72.72,0,0,0,.52-.21.71.71,0,0,0,.22-.53.72.72,0,0,0-.22-.52.69.69,0,0,0-.52-.22H56.58v.15A.66.66,0,0,0,57,42Z"/><path class="cls-4" d="M67.6,49.22H55.82a.7.7,0,0,0-.74.74.74.74,0,0,0,.2.53.73.73,0,0,0,.54.21h5v2.76a.92.92,0,0,0,.89.9.84.84,0,0,0,.64-.28.87.87,0,0,0,.26-.62V50.7h5a.72.72,0,0,0,.53-.21.71.71,0,0,0,.21-.53.69.69,0,0,0-.21-.53A.72.72,0,0,0,67.6,49.22Z"/><path class="cls-4" d="M77.81,48.89a12,12,0,0,1-2-2.26,5.84,5.84,0,0,1-.94-3.37V43h2.37a.73.73,0,0,0,.53-.22.74.74,0,0,0,.23-.54.76.76,0,0,0-.23-.55.71.71,0,0,0-.53-.24H70.58a.73.73,0,0,0-.54.24.76.76,0,0,0-.23.55.77.77,0,0,0,.77.76H73v.17a6.27,6.27,0,0,1-1,3.51A10.61,10.61,0,0,1,69.92,49a.71.71,0,0,0-.22.24.83.83,0,0,0-.09.28.71.71,0,0,0,.14.57.77.77,0,0,0,.62.31,1,1,0,0,0,.57-.14,10.23,10.23,0,0,0,2.69-2.83,4.6,4.6,0,0,0,.37-.6,2.07,2.07,0,0,0,.19.32,12.58,12.58,0,0,0,2.64,2.94.59.59,0,0,0,.22.14,1.48,1.48,0,0,0,.33,0A.81.81,0,0,0,78,50a.7.7,0,0,0,.15-.6.49.49,0,0,0-.1-.25A1.39,1.39,0,0,0,77.81,48.89Z"/><path class="cls-4" d="M83,45.24a.78.78,0,0,0-.58-.23H80.89V40.84H78.68V41a.7.7,0,0,0,.4.69V53.46a.84.84,0,0,0,.27.62.86.86,0,0,0,.65.28.83.83,0,0,0,.62-.28.84.84,0,0,0,.27-.62V46.62h1.53a.84.84,0,0,0,.83-.81A.76.76,0,0,0,83,45.24Z"/></g></g></svg>