<svg xmlns="http://www.w3.org/2000/svg" xmlns:xlink="http://www.w3.org/1999/xlink" viewBox="0 0 52.59 54.91"><defs><style>.cls-1{fill:url(#linear-gradient);}.cls-2{fill:url(#linear-gradient-2);}.cls-3{fill:url(#linear-gradient-3);}.cls-4{fill:#007f41;}</style><linearGradient id="linear-gradient" x1="-70.49" y1="491.29" x2="-70.26" y2="491.29" gradientTransform="matrix(-55.21, -0.53, -0.53, 55.21, -3608.32, -27137.17)" gradientUnits="userSpaceOnUse"><stop offset="0.1" stop-color="#ee7800"/><stop offset="0.25" stop-color="#ec7202"/><stop offset="0.46" stop-color="#e56207"/><stop offset="0.69" stop-color="#db470f"/><stop offset="0.93" stop-color="#cc211a"/><stop offset="1" stop-color="#c8161d"/></linearGradient><linearGradient id="linear-gradient-2" x1="-88.01" y1="497.4" x2="-87.78" y2="497.4" gradientTransform="matrix(49.41, 0.47, 0.47, -49.41, 4138.93, 24627.44)" gradientUnits="userSpaceOnUse"><stop offset="0" stop-color="#20aee5"/><stop offset="1" stop-color="#0054a7"/></linearGradient><linearGradient id="linear-gradient-3" x1="-85.08" y1="497.15" x2="-84.85" y2="497.15" gradientTransform="matrix(73.02, 0.7, 0.7, -73.02, 5892.33, 36386.8)" gradientUnits="userSpaceOnUse"><stop offset="0" stop-color="#8fc31f"/><stop offset="0.14" stop-color="#89c121"/><stop offset="0.31" stop-color="#79bb27"/><stop offset="0.52" stop-color="#5eb030"/><stop offset="0.73" stop-color="#38a23d"/><stop offset="0.96" stop-color="#08904d"/><stop offset="1" stop-color="#008d50"/></linearGradient></defs><g id="레이어_2" data-name="레이어 2"><g id="Layer_1" data-name="Layer 1"><path class="cls-1" d="M20.85,14.48a10.52,10.52,0,0,0-3.74-2.23,9.89,9.89,0,0,0-3-.65c-.9,0-1.67.28-1.87,1.19-.37,1.72-.2,16.49-.07,18.2.1,1.25.63,2,2.1,2C24.5,32.78,27.2,20.33,20.85,14.48Z"/><path class="cls-2" d="M32.62,2.62a9.74,9.74,0,0,0-3.4-2A9.08,9.08,0,0,0,26.46,0c-.83,0-1.52.27-1.7,1.08-.34,1.56-.18,15-.06,16.53.09,1.13.56,1.8,1.9,1.78C35.93,19.23,38.38,7.93,32.62,2.62Z"/><path class="cls-3" d="M36.73,15.08a12.07,12.07,0,0,0-4.27-2.54A11.12,11.12,0,0,0,29,11.8c-1,0-1.92.32-2.14,1.36-.44,2-.23,18.8-.08,20.76.12,1.43.71,2.26,2.39,2.24C40.89,36,44,21.76,36.73,15.08Z"/><path class="cls-4" d="M5,40.85H0V54.5H5c4.12,0,7.12-2.86,7.12-6.8,0-4.1-2.87-6.86-7.12-6.85m4.7,6.83a4.47,4.47,0,0,1-4.77,4.73H2.41V42.94H4.93A4.39,4.39,0,0,1,9.7,47.68Z"/><path class="cls-4" d="M21.85,47.44a3.79,3.79,0,0,0,1.47-3.09c0-2.2-1.76-3.51-4.7-3.5H13.2V54.5h5.51C22,54.5,24,53,24,50.6a3.26,3.26,0,0,0-2.18-3.16m-4.14-1a.93.93,0,0,0-.77.79,1.14,1.14,0,0,0,.19.89.79.79,0,0,0,.55.35,10.19,10.19,0,0,0,1,.09c1.08,0,2.22.09,2.72,1a1.8,1.8,0,0,1-.11,1.83,2.78,2.78,0,0,1-2.22.95H15.61V42.94h2.75c1.82,0,2.55.52,2.55,1.63a1.8,1.8,0,0,1-.69,1.5,2.75,2.75,0,0,1-1.59.31A4.94,4.94,0,0,0,17.71,46.45Z"/><path class="cls-4" d="M31.58,47.77a.65.65,0,0,0,.21.07l.2,0a1.09,1.09,0,0,0,.33-.07.75.75,0,0,0,.32-.21,1,1,0,0,0,.14-.28.82.82,0,0,0,0-.31.69.69,0,0,0-.1-.27.63.63,0,0,0-.19-.23c-.19-.13-.4-.31-.65-.52a4.51,4.51,0,0,1-.76-.93,5.37,5.37,0,0,1-.63-1.45,6.31,6.31,0,0,1-.22-2v-.52H28.17v.15a1,1,0,0,0,.06.36.65.65,0,0,0,.27.28,5.71,5.71,0,0,1-.3,1.91,5.22,5.22,0,0,1-.68,1.38,5,5,0,0,1-.73.85,4.54,4.54,0,0,1-.68.51.74.74,0,0,0-.32.52.77.77,0,0,0,.14.58.81.81,0,0,0,.54.3,1,1,0,0,0,.59-.11,6.12,6.12,0,0,0,1.31-1.12,7.46,7.46,0,0,0,1-1.44,9.14,9.14,0,0,0,.95,1.41A5.53,5.53,0,0,0,31.58,47.77ZM37,49.2a4.06,4.06,0,0,0-1.29-.72,4.54,4.54,0,0,0-1.57-.26,4.39,4.39,0,0,0-1.55.26,4.17,4.17,0,0,0-1.29.72,3,3,0,0,0-.85,1.06,2.85,2.85,0,0,0-.3,1.3,2.79,2.79,0,0,0,.3,1.3,2.92,2.92,0,0,0,.85,1.06,4.17,4.17,0,0,0,1.29.72,4.39,4.39,0,0,0,1.55.27,4.54,4.54,0,0,0,1.57-.27A4.06,4.06,0,0,0,37,53.92a2.82,2.82,0,0,0,.85-1.06,2.91,2.91,0,0,0,.29-1.3,3,3,0,0,0-.29-1.3A2.9,2.9,0,0,0,37,49.2Zm-1.28,3.69a2.48,2.48,0,0,1-3.14,0A1.69,1.69,0,0,1,32,51.56a1.71,1.71,0,0,1,.64-1.34,2.52,2.52,0,0,1,3.14,0,1.71,1.71,0,0,1,.64,1.34A1.69,1.69,0,0,1,35.76,52.89Zm1-9.31H35.2V40.84H33.05V41a.68.68,0,0,0,.4.68V47a.82.82,0,0,0,.25.61.85.85,0,0,0,.63.25.82.82,0,0,0,.61-.25A.83.83,0,0,0,35.2,47V45h1.54v2.18a.83.83,0,0,0,.27.63.88.88,0,0,0,.63.26.85.85,0,0,0,.62-.26.83.83,0,0,0,.27-.63V40.84H36.74Zm13.64-2.74V41a.68.68,0,0,0,.42.68v.77H48.34V41.27H41.25v.16a.66.66,0,0,0,.43.68v4c0,1.07.58,1.59,1.73,1.59h3.18c1,0,1.53-.36,1.69-1.09H50.8v.88a.82.82,0,0,0,.26.62.86.86,0,0,0,1.27,0,.85.85,0,0,0,.26-.62V40.84Zm-3.82,4.92a.42.42,0,0,1-.48.48H43.93a.42.42,0,0,1-.48-.48v-3h3.11Zm4.24-.57H48.34V43.92H50.8Zm.49,4A3.9,3.9,0,0,0,50,48.48a4.56,4.56,0,0,0-1.56-.26,4.39,4.39,0,0,0-1.55.26,4.06,4.06,0,0,0-1.29.72,3,3,0,0,0-.85,1.06,2.86,2.86,0,0,0-.31,1.3,2.8,2.8,0,0,0,.31,1.3,2.92,2.92,0,0,0,.85,1.06,4.06,4.06,0,0,0,1.29.72,4.39,4.39,0,0,0,1.55.27A4.57,4.57,0,0,0,50,54.64a3.9,3.9,0,0,0,1.28-.72,3,3,0,0,0,1.16-2.36,3,3,0,0,0-.3-1.3A3,3,0,0,0,51.29,49.2ZM50,52.89a2.29,2.29,0,0,1-1.57.56,2.27,2.27,0,0,1-1.56-.56,1.69,1.69,0,0,1-.64-1.33,1.71,1.71,0,0,1,.64-1.34,2.36,2.36,0,0,1,1.56-.55,2.38,2.38,0,0,1,1.57.55,1.71,1.71,0,0,1,.64,1.34A1.69,1.69,0,0,1,50,52.89Z"/></g></g></svg>