<svg xmlns="http://www.w3.org/2000/svg" xmlns:xlink="http://www.w3.org/1999/xlink" viewBox="0 0 83.29 31.49"><defs><style>.cls-1{fill:url(#linear-gradient);}.cls-2{fill:url(#linear-gradient-2);}.cls-3{fill:url(#linear-gradient-3);}.cls-4{fill:#007f41;}</style><linearGradient id="linear-gradient" x1="489.7" y1="477.88" x2="489.91" y2="477.88" gradientTransform="matrix(-55.21, -0.53, -0.53, 55.21, 27296.96, -26104.76)" gradientUnits="userSpaceOnUse"><stop offset="0.1" stop-color="#ee7800"/><stop offset="0.25" stop-color="#ec7202"/><stop offset="0.46" stop-color="#e56207"/><stop offset="0.69" stop-color="#db470f"/><stop offset="0.93" stop-color="#cc211a"/><stop offset="1" stop-color="#c8161d"/></linearGradient><linearGradient id="linear-gradient-2" x1="450.57" y1="483.33" x2="450.77" y2="483.33" gradientTransform="matrix(49.41, 0.47, 0.47, -49.41, -22479.33, 23677.47)" gradientUnits="userSpaceOnUse"><stop offset="0" stop-color="#20aee5"/><stop offset="0.55" stop-color="#0f7fc4"/><stop offset="1" stop-color="#0054a7"/></linearGradient><linearGradient id="linear-gradient-3" x1="457.18" y1="483.23" x2="457.38" y2="483.23" gradientTransform="matrix(73.02, 0.7, 0.7, -73.02, -33709.9, 34989.33)" gradientUnits="userSpaceOnUse"><stop offset="0" stop-color="#8fc31f"/><stop offset="0.14" stop-color="#89c121"/><stop offset="0.31" stop-color="#79bb27"/><stop offset="0.52" stop-color="#5eb030"/><stop offset="0.73" stop-color="#38a23d"/><stop offset="0.96" stop-color="#08904d"/><stop offset="1" stop-color="#008d50"/></linearGradient></defs><g id="레이어_2" data-name="레이어 2"><g id="Layer_1" data-name="Layer 1"><path class="cls-1" d="M7.73,12.61a9.26,9.26,0,0,0-3.26-1.95,9,9,0,0,0-2.64-.56c-.79,0-1.46.25-1.63,1C-.13,12.63,0,25.5.14,27,.22,28.08.68,28.72,2,28.7,10.91,28.55,13.26,17.71,7.73,12.61Z"/><path class="cls-2" d="M18,2.28A8.44,8.44,0,0,0,15,.52,7.59,7.59,0,0,0,12.62,0c-.72,0-1.33.23-1.49.94-.29,1.36-.15,13-.05,14.4.08,1,.49,1.57,1.66,1.55C20.86,16.75,23,6.91,18,2.28Z"/><path class="cls-3" d="M21.57,13.13a10.72,10.72,0,0,0-3.72-2.21,9.82,9.82,0,0,0-3-.65c-.9,0-1.67.29-1.87,1.19-.38,1.7-.19,16.38-.06,18.08.1,1.25.62,2,2.08,1.95C25.18,31.33,27.87,19,21.57,13.13Z"/><path class="cls-4" d="M33.91,10.39H28.72V24.56h5.19c4.28,0,7.38-3,7.38-7.06,0-4.25-3-7.11-7.38-7.11m4.88,7.09a4.64,4.64,0,0,1-4.95,4.91H31.23V12.56h2.61A4.56,4.56,0,0,1,38.79,17.48Z"/><path class="cls-4" d="M51.39,17.23A3.94,3.94,0,0,0,52.92,14c0-2.28-1.83-3.64-4.88-3.64H42.42V24.56h5.71c3.46,0,5.53-1.51,5.53-4a3.41,3.41,0,0,0-2.27-3.28m-4.29-1a1,1,0,0,0-.81.82,1.28,1.28,0,0,0,.2.92.9.9,0,0,0,.58.37,8.48,8.48,0,0,0,1.06.08c1.11.05,2.29.1,2.82,1.09a1.88,1.88,0,0,1-.12,1.9,2.87,2.87,0,0,1-2.3,1H44.92V12.56h2.85c1.89,0,2.65.55,2.65,1.69a1.86,1.86,0,0,1-.72,1.56,2.94,2.94,0,0,1-1.65.33A4.48,4.48,0,0,0,47.1,16.21Z"/><path class="cls-4" d="M61.49,17.58a1,1,0,0,0,.21.07.86.86,0,0,0,.22,0,1.16,1.16,0,0,0,.34-.06.69.69,0,0,0,.33-.23.76.76,0,0,0,.15-.28.93.93,0,0,0,0-.33.79.79,0,0,0-.1-.28.67.67,0,0,0-.21-.23c-.19-.14-.41-.32-.67-.55a4.3,4.3,0,0,1-.79-1,6.11,6.11,0,0,1-.65-1.5,6.46,6.46,0,0,1-.23-2.06v-.55H58v.16a.87.87,0,0,0,.07.37.61.61,0,0,0,.27.29,5.8,5.8,0,0,1-.31,2,5.37,5.37,0,0,1-.7,1.44,4.61,4.61,0,0,1-.77.87,3.9,3.9,0,0,1-.69.54.73.73,0,0,0-.34.53.88.88,0,0,0,.14.61.85.85,0,0,0,.57.31,1.06,1.06,0,0,0,.61-.11,6.1,6.1,0,0,0,1.36-1.17,6.86,6.86,0,0,0,1-1.49,9.33,9.33,0,0,0,1,1.46A5.55,5.55,0,0,0,61.49,17.58Zm5.66,1.47a4.06,4.06,0,0,0-1.34-.74A4.85,4.85,0,0,0,64.18,18a4.72,4.72,0,0,0-1.6.27,4.16,4.16,0,0,0-1.34.74,3.39,3.39,0,0,0-.89,1.11,3.09,3.09,0,0,0,0,2.7A3.13,3.13,0,0,0,61.24,24a4.4,4.4,0,0,0,1.34.76,4.72,4.72,0,0,0,1.6.27,4.85,4.85,0,0,0,1.63-.27A4.29,4.29,0,0,0,67.15,24,3,3,0,0,0,68,22.86a3.19,3.19,0,0,0,0-2.7A3.26,3.26,0,0,0,67.15,19.05Zm-1.32,3.84a2.41,2.41,0,0,1-1.65.58,2.34,2.34,0,0,1-1.61-.58,1.77,1.77,0,0,1-.67-1.38,1.79,1.79,0,0,1,.67-1.39,2.38,2.38,0,0,1,1.61-.57,2.45,2.45,0,0,1,1.65.57,1.78,1.78,0,0,1,.66,1.39A1.76,1.76,0,0,1,65.83,22.89Zm1-9.66H65.24V10.38H63v.18a.72.72,0,0,0,.42.71v5.47a.9.9,0,0,0,.26.64.92.92,0,0,0,.65.26.89.89,0,0,0,.9-.9v-2h1.61V17a.88.88,0,0,0,.27.65.9.9,0,0,0,.66.27.92.92,0,0,0,.91-.92V10.38H66.85ZM81,10.38v.18a.71.71,0,0,0,.43.71v.8H78.87V10.83H71.52V11a.69.69,0,0,0,.45.71v4.18q0,1.65,1.8,1.65h3.29c1,0,1.58-.39,1.76-1.14h2.61v.91a.89.89,0,0,0,.27.65A.9.9,0,0,0,83,18a.89.89,0,0,0,.27-.65V10.38Zm-4,5.11a.44.44,0,0,1-.5.5H74.3a.44.44,0,0,1-.5-.5V12.37H77Zm4.4-.59H78.87V13.58h2.56Zm.51,4.15a3.91,3.91,0,0,0-1.33-.74A4.92,4.92,0,0,0,79,18a4.77,4.77,0,0,0-1.61.27,4.11,4.11,0,0,0-1.33.74,3.26,3.26,0,0,0-.89,1.11A3.08,3.08,0,0,0,76.05,24a4.35,4.35,0,0,0,1.33.76A4.77,4.77,0,0,0,79,25a4.92,4.92,0,0,0,1.62-.27A4.13,4.13,0,0,0,81.94,24a2.92,2.92,0,0,0,.89-1.09,3,3,0,0,0,0-2.7A3.15,3.15,0,0,0,81.94,19.05Zm-1.32,3.84a2.57,2.57,0,0,1-3.25,0,1.76,1.76,0,0,1-.66-1.38,1.78,1.78,0,0,1,.66-1.39,2.6,2.6,0,0,1,3.25,0,1.79,1.79,0,0,1,.67,1.39A1.77,1.77,0,0,1,80.62,22.89Z"/></g></g></svg>