<svg xmlns="http://www.w3.org/2000/svg" xmlns:xlink="http://www.w3.org/1999/xlink" viewBox="0 0 54 54.5"><defs><style>.cls-1{fill:url(#linear-gradient);}.cls-2{fill:url(#linear-gradient-2);}.cls-3{fill:url(#linear-gradient-3);}.cls-4{fill:#007f41;}</style><linearGradient id="linear-gradient" x1="-69.82" y1="261.05" x2="-69.59" y2="261.05" gradientTransform="matrix(-55.21, -0.53, -0.53, 55.21, -3692.21, -14426.01)" gradientUnits="userSpaceOnUse"><stop offset="0.1" stop-color="#ee7800"/><stop offset="0.25" stop-color="#ec7202"/><stop offset="0.46" stop-color="#e56207"/><stop offset="0.69" stop-color="#db470f"/><stop offset="0.93" stop-color="#cc211a"/><stop offset="1" stop-color="#c8161d"/></linearGradient><linearGradient id="linear-gradient-2" x1="-87.26" y1="258.16" x2="-87.03" y2="258.16" gradientTransform="matrix(49.41, 0.47, 0.47, -49.41, 4215.34, 12806.49)" gradientUnits="userSpaceOnUse"><stop offset="0" stop-color="#20aee5"/><stop offset="1" stop-color="#0054a7"/></linearGradient><linearGradient id="linear-gradient-3" x1="-84.35" y1="259.45" x2="-84.12" y2="259.45" gradientTransform="matrix(73.02, 0.7, 0.7, -73.02, 6004.94, 19028.56)" gradientUnits="userSpaceOnUse"><stop offset="0" stop-color="#8fc31f"/><stop offset="0.14" stop-color="#89c121"/><stop offset="0.31" stop-color="#79bb27"/><stop offset="0.52" stop-color="#5eb030"/><stop offset="0.73" stop-color="#38a23d"/><stop offset="0.96" stop-color="#08904d"/><stop offset="1" stop-color="#008d50"/></linearGradient></defs><g id="레이어_2" data-name="레이어 2"><g id="Layer_1" data-name="Layer 1"><path class="cls-1" d="M21.55,14.48a10.52,10.52,0,0,0-3.74-2.23,9.82,9.82,0,0,0-3-.65c-.91,0-1.68.28-1.88,1.19-.37,1.72-.2,16.49-.06,18.19.09,1.26.62,2,2.1,2C25.2,32.78,27.9,20.33,21.55,14.48Z"/><path class="cls-2" d="M33.32,2.62a9.51,9.51,0,0,0-3.4-2A9.08,9.08,0,0,0,27.16,0c-.82,0-1.52.27-1.7,1.08-.34,1.56-.18,15-.06,16.53.09,1.13.56,1.8,1.9,1.78C36.63,19.23,39.08,7.93,33.32,2.62Z"/><path class="cls-3" d="M37.44,15.08a12.25,12.25,0,0,0-4.27-2.54,11.25,11.25,0,0,0-3.47-.74c-1,0-1.92.32-2.14,1.35-.44,2-.23,18.81-.08,20.77.12,1.43.71,2.26,2.39,2.24C41.59,36,44.68,21.76,37.44,15.08Z"/><path class="cls-4" d="M5,40.84H0V54.5H5c4.12,0,7.11-2.86,7.11-6.8,0-4.1-2.86-6.86-7.12-6.86M9.7,47.68a4.47,4.47,0,0,1-4.77,4.73H2.41V42.94H4.93A4.39,4.39,0,0,1,9.7,47.68Z"/><path class="cls-4" d="M21.84,47.43a3.76,3.76,0,0,0,1.48-3.08c0-2.2-1.76-3.51-4.71-3.51H13.2V54.5h5.51C22,54.5,24,53,24,50.6a3.29,3.29,0,0,0-2.19-3.17m-4.13-1a1,1,0,0,0-.78.79,1.23,1.23,0,0,0,.19.89.83.83,0,0,0,.56.35,9.93,9.93,0,0,0,1,.09c1.07,0,2.21.09,2.72,1a1.8,1.8,0,0,1-.12,1.83,2.76,2.76,0,0,1-2.21.95H15.6V42.94h2.76c1.81,0,2.55.52,2.55,1.63a1.8,1.8,0,0,1-.69,1.5,2.86,2.86,0,0,1-1.6.31A4.9,4.9,0,0,0,17.71,46.45Z"/><path class="cls-4" d="M33.42,41a.68.68,0,0,0,.41.68v3.08H32.2V41.46H26.27v.17a.67.67,0,0,0,.43.68v6.21a1.4,1.4,0,0,0,1.58,1.58h2.34a1.4,1.4,0,0,0,1.58-1.58V46.3h1.63v7.19a.85.85,0,0,0,.26.61.82.82,0,0,0,.61.25.85.85,0,0,0,.63-.25.84.84,0,0,0,.25-.61V40.84H33.42Zm-3,7.08a.43.43,0,0,1-.48.48H28.91a.42.42,0,0,1-.46-.48V43h2Zm6.34,5.38a.91.91,0,0,0,.9.88.82.82,0,0,0,.62-.26.84.84,0,0,0,.27-.62V40.84H36.8Zm17-9.59a.69.69,0,0,0-.52-.2H51.83V40.84H49.62V41a.67.67,0,0,0,.4.68v5.45a.87.87,0,0,0,.27.64.92.92,0,0,0,.65.26.89.89,0,0,0,.62-.26.87.87,0,0,0,.27-.64v-2h1.44a.71.71,0,0,0,.52-.22A.69.69,0,0,0,54,44.4.72.72,0,0,0,53.79,43.88ZM47.48,47.6a.61.61,0,0,0,.47-.19.6.6,0,0,0,.2-.47.63.63,0,0,0-.2-.49.61.61,0,0,0-.47-.19h-4a.42.42,0,0,1-.48-.48v-.7h4.14a.61.61,0,0,0,.47-.19.64.64,0,0,0,.19-.47.66.66,0,0,0-.19-.49.61.61,0,0,0-.47-.19H43v-1.1H47.3a.64.64,0,0,0,.48-.2A.66.66,0,0,0,48,42a.65.65,0,0,0-.2-.47.61.61,0,0,0-.48-.2H40.89v.15a.67.67,0,0,0,.4.68V46c0,1.06.59,1.59,1.75,1.59Zm4,5.22h-6.7c-.23,0-.34-.11-.34-.32V52h7.36V48.46H43.2a.66.66,0,0,0-.48.2.62.62,0,0,0-.2.48.65.65,0,0,0,.2.48.66.66,0,0,0,.48.2H50v.82H42.67v2c0,1.07.58,1.6,1.75,1.6h7.09a.68.68,0,0,0,.68-.68A.7.7,0,0,0,52,53,.69.69,0,0,0,51.51,52.82Z"/></g></g></svg>