<svg xmlns="http://www.w3.org/2000/svg" xmlns:xlink="http://www.w3.org/1999/xlink" viewBox="0 0 84.76 31.49"><defs><style>.cls-1{fill:url(#linear-gradient);}.cls-2{fill:url(#linear-gradient-2);}.cls-3{fill:url(#linear-gradient-3);}.cls-4{fill:#007f41;}</style><linearGradient id="linear-gradient" x1="489.67" y1="263.94" x2="489.87" y2="263.94" gradientTransform="matrix(-55.21, -0.53, -0.53, 55.21, 27182.28, -14293.64)" gradientUnits="userSpaceOnUse"><stop offset="0.1" stop-color="#ee7800"/><stop offset="0.25" stop-color="#ec7202"/><stop offset="0.46" stop-color="#e56207"/><stop offset="0.69" stop-color="#db470f"/><stop offset="0.93" stop-color="#cc211a"/><stop offset="1" stop-color="#c8161d"/></linearGradient><linearGradient id="linear-gradient-2" x1="450.61" y1="261.03" x2="450.81" y2="261.03" gradientTransform="matrix(49.41, 0.47, 0.47, -49.41, -22376.71, 12693.52)" gradientUnits="userSpaceOnUse"><stop offset="0" stop-color="#20aee5"/><stop offset="0.55" stop-color="#0f7fc4"/><stop offset="1" stop-color="#0054a7"/></linearGradient><linearGradient id="linear-gradient-3" x1="457.21" y1="262.35" x2="457.41" y2="262.35" gradientTransform="matrix(73.02, 0.7, 0.7, -73.02, -33558.2, 18860.16)" gradientUnits="userSpaceOnUse"><stop offset="0" stop-color="#8fc31f"/><stop offset="0.14" stop-color="#89c121"/><stop offset="0.31" stop-color="#79bb27"/><stop offset="0.52" stop-color="#5eb030"/><stop offset="0.73" stop-color="#38a23d"/><stop offset="0.96" stop-color="#08904d"/><stop offset="1" stop-color="#008d50"/></linearGradient></defs><g id="레이어_2" data-name="레이어 2"><g id="Layer_1" data-name="Layer 1"><path class="cls-1" d="M7.73,12.61a9.26,9.26,0,0,0-3.26-1.95,9,9,0,0,0-2.64-.56c-.79,0-1.46.25-1.63,1C-.13,12.63,0,25.5.14,27,.22,28.08.68,28.72,2,28.7,10.91,28.55,13.26,17.71,7.73,12.61Z"/><path class="cls-2" d="M18,2.28A8.44,8.44,0,0,0,15,.52,7.59,7.59,0,0,0,12.62,0c-.72,0-1.33.23-1.49,1-.29,1.35-.15,13-.05,14.39.08,1,.49,1.57,1.66,1.55C20.86,16.75,23,6.91,18,2.28Z"/><path class="cls-3" d="M21.57,13.14a10.59,10.59,0,0,0-3.72-2.22,10.13,10.13,0,0,0-3-.64c-.9,0-1.67.28-1.87,1.18-.38,1.71-.2,16.38-.06,18.08.1,1.25.61,2,2.08,1.95C25.18,31.33,27.87,19,21.57,13.14Z"/><path class="cls-4" d="M33.91,10.39H28.73V24.56h5.18c4.28,0,7.38-3,7.38-7.06,0-4.25-3-7.11-7.38-7.11m4.88,7.09a4.64,4.64,0,0,1-4.95,4.91H31.23V12.56h2.61A4.56,4.56,0,0,1,38.79,17.48Z"/><path class="cls-4" d="M51.39,17.23A3.92,3.92,0,0,0,52.92,14c0-2.28-1.82-3.64-4.88-3.64H42.42V24.56h5.72c3.45,0,5.52-1.51,5.52-4a3.4,3.4,0,0,0-2.27-3.28m-4.29-1a1,1,0,0,0-.8.82,1.27,1.27,0,0,0,.19.92.87.87,0,0,0,.58.36,6.87,6.87,0,0,0,1.06.09c1.11.05,2.29.1,2.82,1.09a1.85,1.85,0,0,1-.12,1.9,2.87,2.87,0,0,1-2.3,1H44.92V12.56h2.86c1.88,0,2.64.54,2.64,1.69a1.86,1.86,0,0,1-.72,1.56,2.85,2.85,0,0,1-1.65.32A5.3,5.3,0,0,0,47.1,16.21Z"/><path class="cls-4" d="M63.4,10.57a.7.7,0,0,0,.43.7v3.2h-1.7V11H56v.18a.71.71,0,0,0,.45.71v6.43A1.45,1.45,0,0,0,58.07,20h2.42a1.44,1.44,0,0,0,1.64-1.64V16.06h1.7v7.45a.85.85,0,0,0,.27.63.89.89,0,0,0,1.28,0,.85.85,0,0,0,.27-.63V10.39H63.4ZM60.33,17.9c0,.34-.16.5-.49.5H58.73a.44.44,0,0,1-.49-.5V12.64h2.09Zm6.59,5.59a.87.87,0,0,0,.27.64.91.91,0,0,0,.66.28.9.9,0,0,0,.64-.28.87.87,0,0,0,.27-.64V10.39H66.92Zm17.62-9.94a.7.7,0,0,0-.54-.22H82.51V10.39h-2.3v.18a.7.7,0,0,0,.42.7v5.65a.87.87,0,0,0,.28.66.91.91,0,0,0,.67.28.9.9,0,0,0,.65-.28.91.91,0,0,0,.28-.66V14.84H84a.71.71,0,0,0,.54-.23.75.75,0,0,0,.22-.53A.73.73,0,0,0,84.54,13.55ZM78,17.41a.67.67,0,0,0,.49-.21.66.66,0,0,0,.2-.48A.68.68,0,0,0,78,16H73.89a.44.44,0,0,1-.5-.5v-.72h4.29a.66.66,0,0,0,.49-.2.67.67,0,0,0,.19-.49.72.72,0,0,0-.19-.51.66.66,0,0,0-.49-.2H73.39V12.25H77.8a.67.67,0,0,0,.51-.2.69.69,0,0,0,.2-.5.7.7,0,0,0-.2-.5.68.68,0,0,0-.51-.21H71.16V11a.68.68,0,0,0,.41.7v4.05c0,1.11.61,1.66,1.82,1.66Zm4.17,5.41h-7c-.24,0-.35-.11-.35-.34V22h7.64V18.29h-9a.69.69,0,0,0-.5.21.69.69,0,0,0,0,1,.69.69,0,0,0,.5.21h7.1v.85H73v2c0,1.1.61,1.66,1.82,1.66h7.35a.72.72,0,0,0,.71-.71.68.68,0,0,0-.21-.51A.69.69,0,0,0,82.17,22.82Z"/></g></g></svg>