<svg xmlns="http://www.w3.org/2000/svg" xmlns:xlink="http://www.w3.org/1999/xlink" viewBox="0 0 53.86 54.54"><defs><style>.cls-1{fill:url(#linear-gradient);}.cls-2{fill:url(#linear-gradient-2);}.cls-3{fill:url(#linear-gradient-3);}.cls-4{fill:#007f41;}</style><linearGradient id="linear-gradient" x1="-69.92" y1="146.22" x2="-69.69" y2="146.22" gradientTransform="matrix(-55.21, -0.53, -0.53, 55.21, -3757.83, -8086.51)" gradientUnits="userSpaceOnUse"><stop offset="0.1" stop-color="#ee7800"/><stop offset="0.25" stop-color="#ec7202"/><stop offset="0.46" stop-color="#e56207"/><stop offset="0.69" stop-color="#db470f"/><stop offset="0.93" stop-color="#cc211a"/><stop offset="1" stop-color="#c8161d"/></linearGradient><linearGradient id="linear-gradient-2" x1="-87.31" y1="138.84" x2="-87.08" y2="138.84" gradientTransform="matrix(49.41, 0.47, 0.47, -49.41, 4273.93, 6910.96)" gradientUnits="userSpaceOnUse"><stop offset="0" stop-color="#20aee5"/><stop offset="1" stop-color="#0054a7"/></linearGradient><linearGradient id="linear-gradient-3" x1="-84.41" y1="140.9" x2="-84.18" y2="140.9" gradientTransform="matrix(73.02, 0.7, 0.7, -73.02, 6091.57, 10371.39)" gradientUnits="userSpaceOnUse"><stop offset="0" stop-color="#8fc31f"/><stop offset="0.14" stop-color="#89c121"/><stop offset="0.31" stop-color="#79bb27"/><stop offset="0.52" stop-color="#5eb030"/><stop offset="0.73" stop-color="#38a23d"/><stop offset="0.96" stop-color="#08904d"/><stop offset="1" stop-color="#008d50"/></linearGradient></defs><g id="레이어_2" data-name="레이어 2"><g id="Layer_1" data-name="Layer 1"><path class="cls-1" d="M21.48,14.48a10.52,10.52,0,0,0-3.74-2.23,9.89,9.89,0,0,0-3-.65c-.9,0-1.67.28-1.87,1.19-.37,1.72-.2,16.49-.06,18.19.09,1.26.62,2,2.09,2C25.13,32.78,27.83,20.33,21.48,14.48Z"/><path class="cls-2" d="M33.25,2.62a9.6,9.6,0,0,0-3.4-2A9.08,9.08,0,0,0,27.09,0c-.82,0-1.52.27-1.7,1.08-.34,1.56-.18,15-.06,16.53.09,1.13.56,1.8,1.9,1.78C36.56,19.23,39,7.93,33.25,2.62Z"/><path class="cls-3" d="M37.37,15.08a12.25,12.25,0,0,0-4.27-2.54,11.32,11.32,0,0,0-3.47-.74c-1,0-1.92.32-2.14,1.35-.44,2-.23,18.81-.08,20.77.12,1.43.71,2.26,2.39,2.24C41.52,36,44.6,21.76,37.37,15.08Z"/><path class="cls-4" d="M5,40.88H0V54.54H5c4.12,0,7.12-2.87,7.12-6.81,0-4.1-2.87-6.85-7.12-6.85m4.7,6.83a4.46,4.46,0,0,1-4.77,4.73H2.41V43H4.93A4.39,4.39,0,0,1,9.7,47.71Z"/><path class="cls-4" d="M21.85,47.46a3.78,3.78,0,0,0,1.47-3.08c0-2.19-1.76-3.5-4.71-3.5H13.2V54.53h5.51c3.33,0,5.32-1.46,5.32-3.9a3.3,3.3,0,0,0-2.18-3.17m-4.14-1a1,1,0,0,0-.77.79,1.14,1.14,0,0,0,.19.89.84.84,0,0,0,.55.36c.32,0,.66.06,1,.08,1.08,0,2.22.1,2.72,1a1.8,1.8,0,0,1-.11,1.83,2.75,2.75,0,0,1-2.22,1H15.61V43h2.75c1.82,0,2.55.52,2.55,1.63a1.8,1.8,0,0,1-.69,1.5,2.73,2.73,0,0,1-1.59.31A6,6,0,0,0,17.71,46.48Z"/><path class="cls-4" d="M29.9,47.94a.72.72,0,0,0,.27.59,1,1,0,0,0,.64.22,1,1,0,0,0,.62-.22.74.74,0,0,0,.26-.59V46.52h4.94V47H34a.66.66,0,0,0-.46.19.65.65,0,0,0-.19.48.61.61,0,0,0,.19.45.63.63,0,0,0,.46.2h2.62a.57.57,0,0,0,.25.34,1.19,1.19,0,0,0,.63.17,1.22,1.22,0,0,0,.64-.17.61.61,0,0,0,.27-.54V40.87H36.21V41a.68.68,0,0,0,.42.68V45.2H34a2.33,2.33,0,0,0,.42-.57,2.22,2.22,0,0,0,.28-1.1,2.28,2.28,0,0,0-.28-1.1,3,3,0,0,0-.77-.93,3.66,3.66,0,0,0-1.13-.59,4.38,4.38,0,0,0-2.8,0,3.55,3.55,0,0,0-1.13.59,3,3,0,0,0-.77.93,2.28,2.28,0,0,0-.28,1.1,2.22,2.22,0,0,0,.28,1.1,2.33,2.33,0,0,0,.42.57H26.57a.63.63,0,0,0-.47.2.69.69,0,0,0-.18.47.63.63,0,0,0,.18.45.63.63,0,0,0,.47.2H29.9Zm-.11-3.21a1.44,1.44,0,0,1-.51-1.12,1.46,1.46,0,0,1,.51-1.13A1.87,1.87,0,0,1,31.07,42a1.84,1.84,0,0,1,1.29.47,1.44,1.44,0,0,1,.52,1.13,1.42,1.42,0,0,1-.52,1.12,1.88,1.88,0,0,1-1.29.46A1.91,1.91,0,0,1,29.79,44.73Z"/><path class="cls-4" d="M42.51,42.42V47c0,1,.58,1.58,1.73,1.58h7.14a.73.73,0,0,0,.54-.23.74.74,0,0,0,.23-.55.73.73,0,0,0-.23-.55.72.72,0,0,0-.54-.22H44.79a.42.42,0,0,1-.47-.48V43.13h6.93a.75.75,0,0,0,.55-.23.78.78,0,0,0,.23-.55.76.76,0,0,0-.23-.55.71.71,0,0,0-.55-.23H42.09v.16A.67.67,0,0,0,42.51,42.42Z"/><path class="cls-4" d="M53.63,51a.76.76,0,0,0-.55-.2H41.37a.8.8,0,0,0-.57.2.78.78,0,0,0,.57,1.34H53.08a.74.74,0,0,0,.55-.22.8.8,0,0,0,0-1.12Z"/><path class="cls-4" d="M38.16,52.92H30.79a.28.28,0,0,1-.31-.32v-.36h8V49H29.15a.58.58,0,0,0-.45.18.66.66,0,0,0-.18.47.63.63,0,0,0,.18.45.58.58,0,0,0,.45.18h7.48V51h-8v1.62q0,1.59,1.74,1.59h7.75a.59.59,0,0,0,.46-.19.62.62,0,0,0,.19-.46.6.6,0,0,0-.19-.46A.63.63,0,0,0,38.16,52.92Z"/></g></g></svg>