<svg xmlns="http://www.w3.org/2000/svg" xmlns:xlink="http://www.w3.org/1999/xlink" viewBox="0 0 84.6 31.49"><defs><style>.cls-1{fill:url(#linear-gradient);}.cls-2{fill:url(#linear-gradient-2);}.cls-3{fill:url(#linear-gradient-3);}.cls-4{fill:#007f41;}</style><linearGradient id="linear-gradient" x1="742.65" y1="121.35" x2="742.85" y2="121.35" gradientTransform="matrix(-55.21, -0.53, -0.53, 55.21, 41073.43, -6288.88)" gradientUnits="userSpaceOnUse"><stop offset="0.1" stop-color="#ee7800"/><stop offset="0.25" stop-color="#ec7202"/><stop offset="0.46" stop-color="#e56207"/><stop offset="0.69" stop-color="#db470f"/><stop offset="0.93" stop-color="#cc211a"/><stop offset="1" stop-color="#c8161d"/></linearGradient><linearGradient id="linear-gradient-2" x1="694.12" y1="112.78" x2="694.32" y2="112.78" gradientTransform="matrix(49.41, 0.47, 0.47, -49.41, -34338.47, 5253.94)" gradientUnits="userSpaceOnUse"><stop offset="0" stop-color="#20aee5"/><stop offset="0.55" stop-color="#0f7fc4"/><stop offset="1" stop-color="#0054a7"/></linearGradient><linearGradient id="linear-gradient-3" x1="702.34" y1="115.07" x2="702.54" y2="115.07" gradientTransform="matrix(73.02, 0.7, 0.7, -73.02, -51355.37, 7934.52)" gradientUnits="userSpaceOnUse"><stop offset="0" stop-color="#8fc31f"/><stop offset="0.14" stop-color="#89c121"/><stop offset="0.31" stop-color="#79bb27"/><stop offset="0.52" stop-color="#5eb030"/><stop offset="0.73" stop-color="#38a23d"/><stop offset="0.96" stop-color="#08904d"/><stop offset="1" stop-color="#008d50"/></linearGradient></defs><g id="레이어_2" data-name="레이어 2"><g id="Layer_1" data-name="Layer 1"><path class="cls-1" d="M7.73,12.61a9.09,9.09,0,0,0-3.26-1.94,8.72,8.72,0,0,0-2.64-.57c-.79,0-1.46.25-1.63,1C-.13,12.63,0,25.5.14,27,.22,28.08.68,28.72,2,28.7,10.91,28.55,13.26,17.71,7.73,12.61Z"/><path class="cls-2" d="M18,2.28A8.44,8.44,0,0,0,15,.52,7.65,7.65,0,0,0,12.62,0c-.72,0-1.33.23-1.49,1-.29,1.35-.15,13-.05,14.39.08,1,.49,1.56,1.66,1.55C20.86,16.75,23,6.91,18,2.28Z"/><path class="cls-3" d="M21.57,13.13a10.82,10.82,0,0,0-3.72-2.21,10.12,10.12,0,0,0-3-.65c-.9,0-1.67.29-1.87,1.19-.38,1.7-.19,16.38-.06,18.08.1,1.25.61,2,2.08,1.95C25.18,31.33,27.87,19,21.57,13.13Z"/><path class="cls-4" d="M33.91,10.39H28.73V24.56h5.18c4.28,0,7.38-3,7.38-7.06,0-4.25-3-7.11-7.38-7.11m4.88,7.09a4.64,4.64,0,0,1-4.95,4.91H31.23V12.56h2.61A4.56,4.56,0,0,1,38.79,17.48Z"/><path class="cls-4" d="M51.39,17.23A3.94,3.94,0,0,0,52.92,14c0-2.28-1.83-3.64-4.89-3.64H42.41V24.56h5.72c3.46,0,5.52-1.52,5.52-4a3.4,3.4,0,0,0-2.26-3.28m-4.29-1a1,1,0,0,0-.81.83,1.28,1.28,0,0,0,.2.92.85.85,0,0,0,.58.36,6.87,6.87,0,0,0,1.06.09c1.11.05,2.29.1,2.82,1.09a1.88,1.88,0,0,1-.12,1.9,2.87,2.87,0,0,1-2.3,1H44.92V12.56h2.86c1.89,0,2.65.54,2.65,1.69a1.87,1.87,0,0,1-.72,1.56,2.85,2.85,0,0,1-1.65.32A6.35,6.35,0,0,0,47.1,16.2Z"/><path class="cls-4" d="M59.74,17.72a.74.74,0,0,0,.28.61,1,1,0,0,0,.67.22,1,1,0,0,0,.64-.22.76.76,0,0,0,.27-.61V16.24h5.12v.48H64a.67.67,0,0,0-.48.2.69.69,0,0,0,0,1,.67.67,0,0,0,.48.2h2.72a.56.56,0,0,0,.25.35,1.3,1.3,0,0,0,1.32,0,.6.6,0,0,0,.28-.56v-7.5H66.29v.18a.72.72,0,0,0,.43.71v3.61H64a2.9,2.9,0,0,0,.44-.6,2.35,2.35,0,0,0,.28-1.14A2.46,2.46,0,0,0,64.4,12a3.34,3.34,0,0,0-.81-1,3.82,3.82,0,0,0-1.17-.62,4.72,4.72,0,0,0-2.91,0,3.82,3.82,0,0,0-1.17.62,3.16,3.16,0,0,0-.8,1,2.47,2.47,0,0,0-.29,1.14,2.36,2.36,0,0,0,.29,1.14,2.58,2.58,0,0,0,.44.6H56.29a.64.64,0,0,0-.49.21.73.73,0,0,0-.19.48.68.68,0,0,0,.19.47.66.66,0,0,0,.49.2h3.45Zm-.11-3.33a1.56,1.56,0,0,1,0-2.34,2.1,2.1,0,0,1,2.67,0,1.54,1.54,0,0,1,0,2.34,2.13,2.13,0,0,1-2.67,0Z"/><path class="cls-4" d="M72.83,12v4.78c0,1.09.59,1.64,1.79,1.64H82a.78.78,0,0,0,.57-.24.8.8,0,0,0,.23-.56.8.8,0,0,0-.8-.81H75.19a.44.44,0,0,1-.49-.5V12.72h7.2a.81.81,0,0,0,.57-.23.83.83,0,0,0,.23-.57.85.85,0,0,0-.23-.58.78.78,0,0,0-.57-.24H72.39v.18A.7.7,0,0,0,72.83,12Z"/><path class="cls-4" d="M84.36,20.94a.77.77,0,0,0-.57-.22H71.64a.78.78,0,0,0-.58.22.77.77,0,0,0-.23.58.78.78,0,0,0,.23.57.75.75,0,0,0,.58.24H83.79a.82.82,0,0,0,.81-.81A.74.74,0,0,0,84.36,20.94Z"/><path class="cls-4" d="M68.31,22.89H60.67c-.21,0-.32-.11-.32-.34v-.37H68.6V18.86H59a.63.63,0,0,0-.48.19.68.68,0,0,0-.18.48.66.66,0,0,0,.18.47.63.63,0,0,0,.48.19h7.75v.71H58.47v1.68c0,1.11.6,1.66,1.8,1.66h8a.68.68,0,0,0,.49-.2.73.73,0,0,0,.19-.48.69.69,0,0,0-.19-.48A.67.67,0,0,0,68.31,22.89Z"/></g></g></svg>